<svg width="697" height="683" viewBox="0 0 697 683" fill="none" xmlns="http://www.w3.org/2000/svg">
<mask id="mask0_3_721" style="mask-type:luminance" maskUnits="userSpaceOnUse" x="88" y="0" width="522" height="521">
<path d="M88.5773 0.245911H609.148V520.824H88.5773V0.245911Z" fill="white"/>
</mask>
<g mask="url(#mask0_3_721)">
<mask id="mask1_3_721" style="mask-type:luminance" maskUnits="userSpaceOnUse" x="88" y="0" width="522" height="521">
<path d="M348.863 0.245911C205.109 0.245911 88.5773 116.778 88.5773 260.531C88.5773 404.285 205.109 520.824 348.863 520.824C492.616 520.824 609.148 404.285 609.148 260.531C609.148 116.778 492.616 0.245911 348.863 0.245911Z" fill="white"/>
</mask>
<g mask="url(#mask1_3_721)">
<path d="M88.5773 0.245911H609.148V520.824H88.5773V0.245911Z" fill="#FF4A39"/>
</g>
</g>
<mask id="mask2_3_721" style="mask-type:luminance" maskUnits="userSpaceOnUse" x="184" y="96" width="329" height="329">
<path d="M184.824 96.4924H512.901V424.578H184.824V96.4924Z" fill="white"/>
</mask>
<g mask="url(#mask2_3_721)">
<mask id="mask3_3_721" style="mask-type:luminance" maskUnits="userSpaceOnUse" x="184" y="96" width="329" height="329">
<path d="M348.863 96.4924C258.265 96.4924 184.824 169.933 184.824 260.531C184.824 351.129 258.265 424.578 348.863 424.578C439.46 424.578 512.901 351.129 512.901 260.531C512.901 169.933 439.46 96.4924 348.863 96.4924Z" fill="white"/>
</mask>
<g mask="url(#mask3_3_721)">
<path d="M184.824 96.4924H512.901V424.578H184.824V96.4924Z" fill="#FEFEFE"/>
</g>
</g>
<mask id="mask4_3_721" style="mask-type:luminance" maskUnits="userSpaceOnUse" x="0" y="527" width="175" height="156">
<path d="M0.897461 527.753H174.096V682.312H0.897461V527.753Z" fill="white"/>
</mask>
<g mask="url(#mask4_3_721)">
<path d="M0.913086 570.336C0.913086 570.336 63.3454 542.865 173.386 528.338V648.521C173.386 648.521 103.12 641.257 15.9477 681.68L73.5193 614.325L0.913086 570.336Z" fill="#3E9C5B"/>
</g>
<path d="M17.9918 572.568C17.6329 572.568 17.313 572.357 17.1648 571.99C16.9854 571.53 17.2038 571.023 17.6719 570.843C18.6394 570.485 114.051 533.838 167.706 544.27C168.213 544.371 168.494 544.839 168.424 545.307C168.315 545.775 167.885 546.103 167.378 546.033C114.192 535.711 19.287 572.178 18.3195 572.537C18.2103 572.568 18.1011 572.607 17.9918 572.607V572.568Z" fill="white"/>
<path d="M35.8352 667.363C35.5075 667.363 35.1876 667.184 35.0393 666.864C34.8209 666.435 35.0081 665.888 35.4373 665.639C36.116 665.319 103.69 631.583 167.667 639.494C168.174 639.564 168.494 640.001 168.463 640.5C168.393 641.008 167.956 641.366 167.456 641.296C103.947 633.455 36.9118 666.895 36.2643 667.262C36.116 667.332 36.0146 667.363 35.8664 667.363H35.8352Z" fill="white"/>
<mask id="mask5_3_721" style="mask-type:luminance" maskUnits="userSpaceOnUse" x="523" y="527" width="174" height="156">
<path d="M523.629 527.753H696.921V682.312H523.629V527.753Z" fill="white"/>
</mask>
<g mask="url(#mask5_3_721)">
<path d="M696.82 570.336C696.82 570.336 634.388 542.865 524.347 528.338V648.521C524.347 648.521 594.613 641.257 681.785 681.68L624.214 614.325L696.82 570.305V570.336Z" fill="#3E9C5B"/>
</g>
<path d="M677.112 571.023C677.112 571.023 676.901 571.023 676.792 570.953C676.035 570.664 601.338 542.865 538.765 545.994C538.297 546.064 537.829 545.635 537.829 545.128C537.829 544.628 538.188 544.192 538.695 544.192C601.595 540.993 676.722 568.971 677.44 569.26C677.908 569.439 678.118 569.946 677.978 570.414C677.83 570.773 677.51 570.984 677.151 570.984L677.112 571.023Z" fill="white"/>
<path d="M656.795 664.055C656.795 664.055 656.546 664.055 656.397 663.985C655.929 663.766 607.853 641.367 531.931 640.937C531.431 640.937 531.033 640.54 531.033 640.032C531.033 639.533 531.431 639.135 531.931 639.135C608.282 639.603 656.686 662.151 657.154 662.37C657.583 662.58 657.802 663.127 657.583 663.556C657.443 663.876 657.115 664.055 656.756 664.055H656.795Z" fill="white"/>
<path d="M524.347 567.496V648.521L602.922 597.417C602.922 597.417 581.38 574.76 524.347 567.496Z" fill="black"/>
<path d="M173.386 559.008V648.56L94.8112 592.096C94.8112 592.096 116.353 567.067 173.386 559.047V559.008Z" fill="black"/>
<path d="M98.4391 475.83C98.4391 475.83 324.177 359.781 602.922 475.83V597.417C602.922 597.417 335.435 463.424 98.4391 597.417V475.83Z" fill="#3E9C5B"/>
<path d="M595.44 486.222C595.44 486.222 595.229 486.222 595.12 486.152C450.766 428.83 325.472 431.881 245.813 444.504C159.467 458.213 106.569 485.824 106.031 486.082C105.601 486.292 105.063 486.152 104.806 485.723C104.595 485.286 104.735 484.747 105.164 484.498C105.703 484.209 158.819 456.48 245.423 442.749C325.331 430.047 451.015 426.996 595.728 484.459C596.196 484.638 596.415 485.184 596.235 485.613C596.087 485.972 595.767 486.191 595.408 486.191L595.44 486.222Z" fill="white"/>
<path d="M595.44 584.583C595.44 584.583 595.19 584.583 595.081 584.513C449.221 517.508 324.036 521.074 244.705 535.851C158.749 551.853 106.608 584.146 106.101 584.474C105.703 584.723 105.133 584.614 104.876 584.185C104.626 583.756 104.735 583.218 105.165 582.96C105.672 582.64 158.031 550.199 244.307 534.127C323.888 519.272 449.509 515.714 595.838 582.929C596.267 583.14 596.485 583.678 596.267 584.115C596.126 584.435 595.806 584.653 595.44 584.653V584.583Z" fill="white"/>
<path d="M133.094 346.164C132.158 343.902 131.908 341.694 132.345 339.548C132.782 337.41 133.679 335.514 135.029 333.868C136.386 332.23 137.993 331.02 139.866 330.248C141.325 329.647 142.885 329.374 144.547 329.437C146.217 329.499 147.824 330.053 149.385 331.091C149.572 328.368 150.352 326.16 151.725 324.475C153.083 322.774 154.643 321.557 156.406 320.823C158.677 319.887 161.08 319.505 163.616 319.668C166.159 319.84 168.507 320.659 170.669 322.134C172.838 323.593 174.531 325.816 175.756 328.812L183.807 348.411L141.177 365.888L133.094 346.164ZM149.166 341.452C148.776 340.516 148.167 339.969 147.356 339.798C146.545 339.634 145.757 339.704 144.984 340.016C144.259 340.313 143.689 340.812 143.268 341.514C142.854 342.224 142.815 342.973 143.143 343.761L146.42 351.751L152.381 349.316L149.166 341.452ZM165.894 332.87C165.457 331.769 164.731 331.106 163.709 330.872C162.695 330.646 161.696 330.732 160.713 331.122C159.738 331.52 158.965 332.167 158.404 333.057C157.826 333.931 157.748 334.922 158.185 336.022L162.024 345.353L169.732 342.201L165.894 332.87Z" fill="#FEFEFE"/>
<path d="M120.92 306.154L119.516 298.227L162.084 271.294L164.3 283.778L158.058 287.492L160.805 302.971L167.92 304.313L170.011 316.172L120.92 306.154ZM138.522 298.883L148.696 300.599L149.757 300.755L148.415 293.265L147.728 293.671L138.522 298.883Z" fill="#FEFEFE"/>
<path d="M116.864 270.556L117.145 259.29L152.348 260.195L152.848 240.846L163.708 241.127L162.928 271.742L116.864 270.556Z" fill="#FEFEFE"/>
<path d="M168.275 221.76C167.791 223.929 167.011 225.989 165.934 227.939C164.849 229.874 163.508 231.552 161.908 232.964C160.285 234.36 158.428 235.336 156.322 235.897C154.223 236.459 151.882 236.459 149.3 235.897L118.809 229.187L121.212 218.202L151.641 224.881C153.326 225.255 154.73 224.881 155.854 223.757C156.977 222.634 157.718 221.284 158.069 219.7C158.428 218.077 158.335 216.509 157.789 214.988C157.25 213.474 156.135 212.522 154.449 212.148L124.021 205.469L126.424 194.484L156.915 201.194C159.458 201.755 161.557 202.738 163.219 204.127C164.904 205.5 166.191 207.147 167.089 209.058C168.002 210.977 168.54 213.037 168.712 215.237C168.899 217.422 168.751 219.599 168.275 221.76Z" fill="#FEFEFE"/>
<path d="M137.824 166.016C139.431 162.567 141.429 159.821 143.816 157.777C146.188 155.74 148.778 154.313 151.587 153.501C154.38 152.674 157.22 152.409 160.107 152.721C162.978 153.017 165.724 153.774 168.346 154.999C170.967 156.208 173.316 157.808 175.399 159.805C177.498 161.787 179.144 164.104 180.33 166.765C181.516 169.433 182.093 172.32 182.078 175.441C182.054 178.561 181.243 181.854 179.643 185.302L171.966 201.936L130.147 182.65L137.824 166.016ZM169.906 180.808C170.983 178.483 171.342 176.275 170.967 174.192C170.593 172.093 169.75 170.26 168.439 168.7C167.113 167.124 165.529 165.914 163.696 165.079C161.87 164.229 159.904 163.8 157.797 163.8C155.699 163.784 153.725 164.299 151.868 165.36C150.019 166.421 148.552 168.122 147.467 170.447L144.503 176.939L166.941 187.3L169.906 180.808Z" fill="#FEFEFE"/>
<path d="M205.968 142.389L190.489 163.923L182.312 158.056L186.744 151.876L165.616 136.709L161.184 142.888L152.852 136.896L168.331 115.363L176.664 121.355L172.201 127.565L193.329 142.732L197.792 136.522L205.968 142.389Z" fill="#FEFEFE"/>
<path d="M233.082 115.432L224.937 123.234L212.579 110.345L202.904 119.645L215.262 132.534L207.148 140.336L175.253 107.099L183.368 99.2972L195.383 111.812L205.057 102.512L193.042 89.9971L201.187 82.195L233.082 115.432Z" fill="#FEFEFE"/>
<path d="M243.103 54.9808C245.514 53.7168 247.831 53.038 250.062 52.9522C252.286 52.8508 254.353 53.1941 256.273 53.9821C258.208 54.7779 259.924 55.878 261.422 57.2902C262.92 58.6868 264.137 60.2784 265.073 62.0651C266.298 64.4603 266.954 67.0428 267.04 69.8047C267.118 72.5511 266.478 75.196 265.105 77.7316C263.747 80.2751 261.469 82.3739 258.27 84.0357L251.747 87.4374L258.083 99.5775L248.096 104.789L226.594 63.5943L243.103 54.9808ZM253.37 74.642C254.946 73.8306 255.844 72.7227 256.054 71.3027C256.257 69.8671 256.054 68.5564 255.43 67.3705C254.759 66.1065 253.776 65.1391 252.465 64.4681C251.17 63.7815 249.735 63.8439 248.159 64.6553L241.636 68.0571L246.848 78.0437L253.37 74.642Z" fill="#FEFEFE"/>
<path d="M297.801 83.781C295.679 84.3895 293.502 84.686 291.278 84.686C289.047 84.6704 286.925 84.2803 284.912 83.5313C282.915 82.7823 281.167 81.6276 279.669 80.0672C278.171 78.4911 277.047 76.4314 276.298 73.8879L267.654 43.8655L278.483 40.7447L287.128 70.7047C287.604 72.3509 288.602 73.4042 290.124 73.8567C291.661 74.2936 293.213 74.2858 294.774 73.8255C296.35 73.373 297.676 72.546 298.737 71.36C299.814 70.1585 300.118 68.7307 299.642 67.0845L290.998 37.1245L301.796 34.0037L310.44 64.0261C311.166 66.5227 311.322 68.8322 310.908 70.9543C310.487 73.0609 309.645 74.9724 308.381 76.6967C307.132 78.4287 305.58 79.8799 303.731 81.0658C301.897 82.2518 299.923 83.1568 297.801 83.781Z" fill="#FEFEFE"/>
<path d="M335.114 30.2241C337.548 30.0369 339.709 30.4738 341.605 31.5349C343.516 32.596 345.046 34.0316 346.193 35.8416C347.355 37.6361 348.018 39.5398 348.19 41.5528C348.291 43.1366 348.049 44.7204 347.472 46.2964C346.91 47.8568 345.888 49.2144 344.414 50.3535C346.973 51.399 348.845 52.819 350.031 54.6291C351.217 56.4391 351.88 58.296 352.029 60.1841C352.216 62.6418 351.841 65.0526 350.905 67.4245C349.969 69.7807 348.471 71.7624 346.411 73.3853C344.351 74.9925 341.706 75.9131 338.484 76.1628L317.356 77.7856L313.861 31.847L335.114 30.2241ZM334.645 46.9518C335.66 46.8738 336.37 46.4759 336.768 45.7659C337.181 45.0637 337.361 44.2913 337.298 43.4565C337.236 42.6685 336.931 41.9585 336.393 41.3343C335.87 40.7101 335.176 40.4449 334.302 40.5229L325.72 41.1783L326.188 47.6072L334.645 46.9518ZM337.673 65.5208C338.859 65.4427 339.709 64.9512 340.232 64.054C340.747 63.1411 340.965 62.1503 340.887 61.0892C340.801 60.0749 340.435 59.1543 339.795 58.3428C339.147 57.5158 338.234 57.1413 337.049 57.2193L326.999 57.9996L327.624 66.301L337.673 65.5208Z" fill="#FEFEFE"/>
<path d="M360.64 29.6698L371.843 30.9493L367.849 65.9027L387.073 68.1185L385.825 78.9165L355.397 75.4212L360.64 29.6698Z" fill="#FEFEFE"/>
<path d="M413.28 86.857L387.783 79.523L390.561 69.8484L397.894 71.9706L405.104 46.9727L397.77 44.8505L400.61 34.9887L426.107 42.3227L423.267 52.1845L415.933 50.0935L408.724 75.0914L416.058 77.1824L413.28 86.857Z" fill="#FEFEFE"/>
<path d="M435.16 71.1476C433.802 73.7067 433.225 76.1332 433.412 78.4192C433.599 80.6896 434.317 82.7103 435.565 84.4736C436.829 86.2369 438.405 87.61 440.278 88.5931C441.877 89.4201 443.57 89.9116 445.365 90.0599C447.175 90.2003 448.954 89.9507 450.701 89.3109C452.465 88.6633 454.048 87.5164 455.445 85.878L465.525 91.1834C463.154 94.4447 460.29 96.8945 456.943 98.5173C453.588 100.156 450.03 100.936 446.27 100.858C442.525 100.772 438.881 99.8047 435.347 97.9556C432.429 96.4108 429.979 94.4447 427.982 92.0572C426 89.6854 424.533 87.0405 423.581 84.1303C422.622 81.2201 422.271 78.2007 422.52 75.0799C422.77 71.959 423.683 68.9162 425.267 65.9358C426.827 62.9398 428.824 60.4432 431.259 58.4458C433.708 56.4485 436.408 55.0285 439.342 54.1703C442.291 53.2965 445.318 53 448.423 53.2653C451.521 53.5149 454.524 54.4122 457.442 55.9492C460.938 57.7827 463.785 60.2247 465.993 63.2831C468.217 66.3259 469.621 69.6808 470.207 73.3634C470.807 77.046 470.402 80.7442 468.989 84.4424L458.909 79.137C459.448 77.1006 459.471 75.2047 458.972 73.457C458.488 71.6938 457.669 70.1178 456.506 68.7446C455.359 67.3558 454.009 66.2479 452.449 65.4365C450.577 64.4612 448.556 63.9541 446.395 63.9073C444.249 63.8449 442.182 64.391 440.184 65.5301C438.187 66.677 436.509 68.5495 435.16 71.1476Z" fill="#FEFEFE"/>
<path d="M507.403 112.842C508.504 111.766 508.948 110.548 508.745 109.191C508.558 107.818 507.84 106.507 506.592 105.259C505.359 104.01 504.111 103.246 502.847 102.949C501.599 102.661 500.514 102.973 499.601 103.885C498.993 104.471 498.712 105.134 498.759 105.883C498.821 106.616 499.055 107.342 499.477 108.067C499.89 108.801 500.335 109.456 500.818 110.034C501.294 110.595 501.645 111.048 501.88 111.375C502.878 112.671 503.853 114.083 504.813 115.62C505.765 117.157 506.53 118.756 507.091 120.426C507.653 122.088 507.879 123.804 507.778 125.575C507.692 127.339 507.076 129.117 505.937 130.912C505.227 131.887 504.532 132.706 503.846 133.377C502.137 135.078 500.257 136.217 498.197 136.779C496.137 137.341 494.023 137.45 491.862 137.122C489.693 136.787 487.625 136.1 485.651 135.063C483.669 134.017 481.906 132.722 480.346 131.162C479.035 129.827 477.88 128.212 476.882 126.324C475.883 124.452 475.212 122.408 474.884 120.207C474.549 118.023 474.713 115.807 475.384 113.56C476.07 111.313 477.451 109.16 479.534 107.1L487.524 115.214C486.463 116.26 485.885 117.305 485.807 118.366C485.745 119.427 485.971 120.402 486.494 121.3C487.032 122.189 487.594 122.93 488.179 123.516C489.466 124.842 490.769 125.77 492.08 126.293C493.406 126.808 494.53 126.605 495.451 125.669C496.051 125.084 496.332 124.436 496.293 123.734C496.246 123.024 496.028 122.306 495.638 121.581C495.24 120.871 494.795 120.207 494.296 119.583C493.797 118.975 493.422 118.507 493.172 118.179C491.987 116.743 490.847 115.206 489.771 113.56C488.71 111.898 487.906 110.182 487.368 108.411C486.845 106.624 486.783 104.759 487.18 102.824C487.571 100.874 488.647 98.8843 490.395 96.8636L490.332 96.926C492.595 94.4293 495.146 92.9001 497.979 92.3384C500.803 91.761 503.635 91.9873 506.467 93.025C509.292 94.047 511.866 95.7323 514.176 98.0807C515.627 99.5397 516.844 101.194 517.827 103.043C518.826 104.9 519.465 106.85 519.762 108.91C520.074 110.954 519.887 112.998 519.2 115.058C518.529 117.118 517.25 119.068 515.362 120.925L507.403 112.842Z" fill="#FEFEFE"/>
<path d="M520.113 141.513C517.655 143.027 515.931 144.806 514.932 146.85C513.933 148.909 513.528 151.008 513.715 153.154C513.902 155.315 514.542 157.289 515.65 159.083C516.602 160.62 517.819 161.908 519.301 162.953C520.776 164.014 522.43 164.709 524.263 165.044C526.089 165.372 528.024 165.185 530.068 164.482L536.06 174.188C532.354 175.811 528.64 176.466 524.919 176.154C521.189 175.858 517.741 174.719 514.557 172.721C511.374 170.74 508.729 168.048 506.631 164.638C504.922 161.845 503.822 158.912 503.322 155.838C502.823 152.779 502.893 149.752 503.541 146.756C504.204 143.776 505.445 141.029 507.255 138.486C509.065 135.927 511.39 133.766 514.245 131.995C517.117 130.231 520.113 129.108 523.233 128.624C526.354 128.125 529.397 128.25 532.377 128.999C535.35 129.748 538.104 131.027 540.648 132.837C543.183 134.647 545.305 136.949 547.014 139.734C549.089 143.105 550.307 146.662 550.665 150.407C551.04 154.168 550.541 157.788 549.167 161.268C547.794 164.74 545.555 167.705 542.458 170.162L536.466 160.488C537.979 158.99 538.978 157.351 539.462 155.588C539.938 153.84 540.031 152.069 539.743 150.283C539.446 148.512 538.838 146.865 537.901 145.352C536.793 143.557 535.327 142.106 533.501 140.983C531.667 139.843 529.6 139.258 527.29 139.235C524.997 139.219 522.609 139.976 520.113 141.513Z" fill="#FEFEFE"/>
<path d="M530.819 219.741L527.261 209.037L544.207 203.388L539.963 190.655L523.017 196.304L519.459 185.63L563.151 171.087L566.709 181.761L550.262 187.222L554.506 199.955L570.953 194.494L574.511 205.198L530.819 219.741Z" fill="#FEFEFE"/>
<path d="M555.007 220.516C558.378 220.219 561.561 220.563 564.557 221.546C567.553 222.521 570.206 224.011 572.515 226.008C574.825 228.021 576.697 230.417 578.133 233.186C579.584 235.948 580.458 238.968 580.754 242.237C581.02 245.498 580.668 248.634 579.693 251.63C578.734 254.626 577.275 257.287 575.324 259.62C573.366 261.968 570.994 263.88 568.209 265.362C565.415 266.86 562.341 267.75 558.971 268.046C555.663 268.311 552.519 267.937 549.546 266.923C546.566 265.924 543.936 264.426 541.65 262.429C539.356 260.447 537.484 258.067 536.033 255.282C534.597 252.489 533.739 249.461 533.474 246.2C533.177 242.931 533.505 239.81 534.441 236.838C535.393 233.857 536.844 231.189 538.779 228.817C540.714 226.461 543.062 224.557 545.832 223.106C548.594 221.647 551.653 220.781 555.007 220.516ZM555.944 231.626C553.073 231.852 550.716 232.656 548.891 234.029C547.057 235.402 545.754 237.072 544.99 239.054C544.217 241.027 543.913 243.064 544.085 245.17C544.272 247.269 544.912 249.259 546.019 251.131C547.143 253.004 548.711 254.47 550.732 255.532C552.768 256.593 555.202 257.006 558.035 256.78C560.921 256.53 563.278 255.703 565.088 254.314C566.913 252.941 568.24 251.256 569.051 249.259C569.863 247.277 570.182 245.241 570.019 243.142C569.831 241.035 569.176 239.061 568.053 237.212C566.929 235.379 565.353 233.92 563.34 232.843C561.343 231.782 558.877 231.376 555.944 231.626Z" fill="#FEFEFE"/>
<path d="M558.597 275.945C561.905 276.546 564.877 277.708 567.522 279.44C570.159 281.188 572.336 283.326 574.045 285.869C575.746 288.428 576.932 291.222 577.603 294.264C578.266 297.299 578.297 300.444 577.696 303.689C577.111 306.912 575.956 309.837 574.232 312.459C572.523 315.096 570.425 317.296 567.928 319.044C565.447 320.791 562.662 322.016 559.564 322.726C556.482 323.429 553.291 323.483 549.983 322.882C546.691 322.274 543.749 321.088 541.151 319.325C538.545 317.577 536.4 315.439 534.691 312.927C532.99 310.407 531.812 307.606 531.165 304.532C530.501 301.473 530.462 298.329 531.04 295.107C531.648 291.861 532.787 288.936 534.473 286.337C536.158 283.732 538.233 281.539 540.714 279.752C543.211 277.981 545.989 276.756 549.047 276.07C552.105 275.383 555.289 275.336 558.597 275.945ZM556.599 286.93C553.744 286.408 551.263 286.564 549.141 287.399C547.018 288.226 545.318 289.497 544.054 291.206C542.782 292.93 541.963 294.834 541.588 296.917C541.214 298.977 541.315 301.052 541.9 303.159C542.478 305.257 543.617 307.075 545.302 308.62C546.987 310.181 549.234 311.218 552.043 311.741C554.891 312.256 557.364 312.092 559.471 311.242C561.593 310.383 563.294 309.104 564.589 307.403C565.9 305.694 566.742 303.814 567.117 301.754C567.507 299.671 567.398 297.588 566.773 295.513C566.165 293.43 565.041 291.612 563.403 290.051C561.757 288.506 559.486 287.469 556.599 286.93Z" fill="#FEFEFE"/>
<path d="M568.084 338.921L563.652 349.282L531.258 335.457L523.675 353.246L513.688 349.001L525.703 320.852L568.084 338.921Z" fill="#FEFEFE"/>
<path d="M192.679 491.568L201.105 471.252L209.937 469.41L219.425 515.443L208.221 517.752L203.54 494.97L198.921 506.174L192.679 507.453L183.972 498.871L188.684 521.778L177.449 524.087L167.962 478.055L176.888 476.214L192.679 491.568Z" fill="#FEFEFE"/>
<path d="M221.813 491.182C221.337 487.749 221.517 484.496 222.344 481.414C223.194 478.316 224.575 475.531 226.495 473.05C228.429 470.577 230.754 468.54 233.485 466.933C236.232 465.334 239.274 464.304 242.629 463.843C245.953 463.407 249.16 463.609 252.241 464.436C255.339 465.248 258.124 466.59 260.605 468.462C263.102 470.335 265.177 472.66 266.847 475.422C268.509 478.168 269.578 481.258 270.061 484.691C270.498 488.061 270.28 491.291 269.406 494.365C268.532 497.424 267.136 500.186 265.224 502.635C263.328 505.093 260.995 507.129 258.233 508.752C255.487 510.375 252.444 511.405 249.121 511.842C245.766 512.302 242.551 512.123 239.477 511.311C236.419 510.484 233.626 509.15 231.113 507.317C228.617 505.468 226.557 503.166 224.934 500.42C223.311 497.673 222.266 494.599 221.813 491.182ZM233.142 489.653C233.532 492.571 234.468 494.927 235.951 496.737C237.425 498.531 239.181 499.78 241.225 500.482C243.285 501.169 245.376 501.371 247.498 501.075C249.636 500.786 251.625 500.014 253.459 498.766C255.308 497.517 256.72 495.848 257.703 493.741C258.678 491.619 258.982 489.114 258.608 486.22C258.21 483.286 257.25 480.938 255.737 479.167C254.215 477.38 252.429 476.132 250.369 475.422C248.325 474.696 246.249 474.478 244.127 474.766C241.982 475.063 239.992 475.827 238.166 477.076C236.356 478.308 234.96 479.97 233.985 482.069C233.001 484.152 232.721 486.68 233.142 489.653Z" fill="#FEFEFE"/>
<path d="M277.083 483.959C276.872 480.526 277.301 477.304 278.362 474.285C279.423 471.25 280.992 468.574 283.075 466.264C285.174 463.939 287.647 462.067 290.502 460.647C293.374 459.235 296.479 458.423 299.834 458.212C303.181 458.01 306.364 458.431 309.383 459.492C312.395 460.537 315.079 462.082 317.435 464.142C319.784 466.186 321.687 468.636 323.146 471.507C324.621 474.378 325.464 477.53 325.674 480.963C325.877 484.381 325.432 487.595 324.332 490.607C323.224 493.603 321.633 496.255 319.557 498.565C317.474 500.859 315.001 502.708 312.13 504.12C309.259 505.54 306.146 506.351 302.798 506.554C299.444 506.765 296.26 506.359 293.249 505.337C290.253 504.299 287.569 502.77 285.197 500.749C282.841 498.736 280.953 496.302 279.517 493.447C278.097 490.576 277.286 487.416 277.083 483.959ZM288.474 483.273C288.638 486.23 289.395 488.656 290.752 490.544C292.102 492.417 293.779 493.782 295.777 494.633C297.79 495.491 299.865 495.85 301.987 495.725C304.148 495.584 306.185 494.96 308.104 493.852C310.039 492.729 311.568 491.153 312.692 489.109C313.831 487.072 314.322 484.599 314.158 481.681C313.971 478.748 313.175 476.337 311.786 474.441C310.413 472.553 308.728 471.18 306.731 470.321C304.733 469.447 302.658 469.073 300.52 469.198C298.375 469.346 296.346 469.97 294.435 471.07C292.515 472.178 291.002 473.746 289.878 475.783C288.755 477.803 288.287 480.3 288.474 483.273Z" fill="#FEFEFE"/>
<path d="M357.778 457.492L369.138 457.523L369.013 504.523L360.025 504.491L344.016 481.522L343.953 504.429L332.562 504.398L332.687 457.398L341.55 457.429L357.716 480.991L357.778 457.492Z" fill="#FEFEFE"/>
<path d="M401.472 506.193L374.446 504.788L374.976 494.521L382.747 494.926L384.151 468.462L376.381 468.056L376.942 457.57L403.969 458.974L403.407 469.46L395.605 469.055L394.201 495.519L402.003 495.925L401.472 506.193Z" fill="#FEFEFE"/>
<path d="M429.683 461.622C433.553 462.02 436.869 463.042 439.639 464.68C442.401 466.327 444.632 468.363 446.318 470.797C448.018 473.216 449.196 475.868 449.844 478.755C450.507 481.626 450.687 484.529 450.375 487.462C450.078 490.396 449.314 493.205 448.065 495.889C446.832 498.557 445.132 500.898 442.947 502.911C440.778 504.931 438.18 506.437 435.145 507.436C432.102 508.45 428.654 508.762 424.784 508.372L406.184 506.406L411.083 459.656L429.683 461.622ZM425.938 497.48C428.56 497.753 430.815 497.379 432.711 496.357C434.599 495.319 436.089 493.907 437.173 492.112C438.25 490.302 438.898 488.367 439.108 486.308C439.335 484.271 439.108 482.243 438.422 480.222C437.735 478.186 436.565 476.446 434.926 475.01C433.304 473.559 431.181 472.693 428.56 472.42L421.32 471.64L418.698 496.7L425.938 497.48Z" fill="#FEFEFE"/>
<path d="M478.448 515.731L451.733 511.517L453.325 501.375L461.002 502.561L465.153 476.346L457.476 475.16L459.13 464.83L485.844 469.043L484.19 479.373L476.482 478.156L472.331 504.371L480.039 505.588L478.448 515.731Z" fill="#FEFEFE"/>
<path d="M519.169 524L507.934 521.66L511.679 503.84L498.26 501.031L494.515 518.851L483.28 516.479L492.923 470.478L504.158 472.85L500.538 490.202L513.957 493.011L517.578 475.659L528.813 477.999L519.169 524Z" fill="#FEFEFE"/>
<path d="M210.391 626.462V635.793H226.651V641.442H203.65V607.362H226.276V613.011H210.391V620.969H224.279V626.462H210.391Z" fill="#F1F1F1"/>
<path d="M243.625 641.941C241.268 641.941 239.17 641.645 237.321 641.067C235.464 640.49 233.927 639.725 232.702 638.789C231.469 637.837 230.533 636.784 229.893 635.637L233.607 631.112H234.2C235.214 632.633 236.517 633.85 238.101 634.763C239.677 635.661 241.518 636.105 243.625 636.105C245.435 636.105 246.792 635.731 247.713 634.982C248.626 634.217 249.086 633.156 249.086 631.798C249.086 631.01 248.938 630.347 248.649 629.801C248.353 629.239 247.869 628.771 247.182 628.397C246.496 628.007 245.567 627.671 244.405 627.398L240.005 626.368C236.946 625.682 234.668 624.527 233.17 622.904C231.672 621.281 230.923 619.175 230.923 616.569C230.923 614.634 231.399 612.941 232.358 611.482C233.334 610.031 234.738 608.892 236.572 608.08C238.421 607.269 240.629 606.863 243.188 606.863C245.809 606.863 248.056 607.222 249.929 607.924C251.801 608.611 253.377 609.664 254.672 611.076L251.333 615.664H250.771C249.788 614.65 248.68 613.885 247.432 613.386C246.199 612.886 244.787 612.637 243.188 612.637C241.331 612.637 239.919 612.964 238.943 613.604C237.984 614.252 237.508 615.157 237.508 616.319C237.508 617.38 237.836 618.238 238.507 618.878C239.193 619.502 240.363 620.002 242.033 620.376L246.527 621.312C249.835 621.999 252.223 623.185 253.705 624.87C255.203 626.54 255.952 628.709 255.952 631.393C255.952 633.515 255.492 635.372 254.579 636.948C253.658 638.532 252.277 639.757 250.428 640.63C248.571 641.504 246.309 641.941 243.625 641.941Z" fill="#F1F1F1"/>
<path d="M285.136 607.362V613.011H275.274V641.442H268.565V613.011H258.734V607.362H285.136Z" fill="#F1F1F1"/>
<path d="M302.746 607.362C308.278 607.362 312.499 608.798 315.417 611.669C318.327 614.525 319.786 618.769 319.786 624.402C319.786 630.02 318.327 634.264 315.417 637.135C312.499 640.006 308.278 641.442 302.746 641.442H290.482V607.362H302.746ZM302.341 635.762C305.852 635.762 308.473 634.872 310.205 633.078C311.953 631.291 312.827 628.397 312.827 624.402C312.827 620.407 311.953 617.521 310.205 615.726C308.473 613.916 305.852 613.011 302.341 613.011H297.223V635.762H302.341Z" fill="#F1F1F1"/>
<path d="M329.069 641.66C328.234 641.66 327.509 641.489 326.885 641.161C326.26 640.833 325.769 640.373 325.418 639.788C325.082 639.187 324.918 638.508 324.918 637.759C324.918 637.01 325.082 636.347 325.418 635.762C325.769 635.161 326.26 634.693 326.885 634.357C327.509 634.006 328.234 633.827 329.069 633.827C329.896 633.827 330.63 634.006 331.254 634.357C331.894 634.693 332.385 635.153 332.721 635.731C333.048 636.316 333.22 636.979 333.22 637.728C333.22 638.875 332.83 639.819 332.065 640.568C331.316 641.301 330.317 641.66 329.069 641.66Z" fill="#F1F1F1"/>
<path d="M363.236 627.741H348.942V622.03H363.236V627.741Z" fill="#F1F1F1"/>
<path d="M378.375 641.442V635.856H386.582V614.665L386.052 614.509C384.881 615.071 383.742 615.523 382.619 615.851C381.495 616.163 380.2 616.413 378.749 616.6V610.858C382.533 610.07 385.591 608.907 387.924 607.362H393.261V635.856H400.595V641.442H378.375Z" fill="#F1F1F1"/>
<path d="M415.947 641.941C412.741 641.941 410.213 641.301 408.364 640.006C406.507 638.696 405.274 636.878 404.65 634.545L409.768 632.235L410.33 632.36C411.204 634.943 413.061 636.23 415.916 636.23C418.14 636.23 419.825 635.317 420.972 633.484C422.134 631.635 422.72 628.865 422.72 625.182L422.252 625.026C421.479 626.509 420.473 627.632 419.224 628.397C417.976 629.146 416.353 629.52 414.356 629.52C412.312 629.52 410.517 629.076 408.957 628.178C407.412 627.289 406.218 626.009 405.368 624.34C404.51 622.654 404.088 620.688 404.088 618.441C404.088 616.093 404.588 614.041 405.586 612.293C406.585 610.546 407.997 609.204 409.831 608.267C411.656 607.331 413.794 606.863 416.228 606.863C420.449 606.863 423.75 608.197 426.121 610.858C428.493 613.526 429.679 617.817 429.679 623.747C429.679 627.827 429.125 631.221 428.025 633.921C426.917 636.628 425.349 638.649 423.313 639.975C421.268 641.286 418.819 641.941 415.947 641.941ZM416.416 623.996C418.163 623.996 419.544 623.489 420.566 622.467C421.581 621.453 422.095 620.064 422.095 618.316C422.095 616.553 421.596 615.157 420.597 614.135C419.599 613.12 418.202 612.605 416.416 612.605C414.683 612.605 413.334 613.105 412.358 614.103C411.375 615.086 410.892 616.491 410.892 618.316C410.892 620.127 411.375 621.531 412.358 622.53C413.334 623.513 414.683 623.996 416.416 623.996Z" fill="#F1F1F1"/>
<path d="M446.764 641.941C443.557 641.941 441.029 641.301 439.18 640.006C437.323 638.696 436.091 636.878 435.466 634.545L440.585 632.235L441.146 632.36C442.02 634.943 443.877 636.23 446.733 636.23C448.956 636.23 450.641 635.317 451.788 633.484C452.951 631.635 453.536 628.865 453.536 625.182L453.068 625.026C452.295 626.509 451.289 627.632 450.041 628.397C448.792 629.146 447.169 629.52 445.172 629.52C443.128 629.52 441.334 629.076 439.773 628.178C438.228 627.289 437.035 626.009 436.184 624.34C435.326 622.654 434.905 620.688 434.905 618.441C434.905 616.093 435.404 614.041 436.403 612.293C437.401 610.546 438.813 609.204 440.647 608.267C442.473 607.331 444.61 606.863 447.045 606.863C451.266 606.863 454.566 608.197 456.938 610.858C459.31 613.526 460.495 617.817 460.495 623.747C460.495 627.827 459.941 631.221 458.841 633.921C457.733 636.628 456.165 638.649 454.129 639.975C452.085 641.286 449.635 641.941 446.764 641.941ZM447.232 623.996C448.98 623.996 450.361 623.489 451.383 622.467C452.397 621.453 452.912 620.064 452.912 618.316C452.912 616.553 452.412 615.157 451.414 614.135C450.415 613.12 449.019 612.605 447.232 612.605C445.5 612.605 444.15 613.105 443.175 614.103C442.192 615.086 441.708 616.491 441.708 618.316C441.708 620.127 442.192 621.531 443.175 622.53C444.15 623.513 445.5 623.996 447.232 623.996Z" fill="#F1F1F1"/>
<path d="M486.506 641.442H480.046V634.014H464.504V628.584L477.861 607.362H486.506V628.584H491.749V634.014H486.506V641.442ZM471.401 628.116L471.619 628.584H480.046V615.414L479.515 615.32L471.401 628.116Z" fill="#F1F1F1"/>
<path d="M348.942 109.011L356.497 203.153L388.159 114.174L371.091 207.064L424.704 129.312L384.175 214.618L456.086 153.392L394.859 225.302L480.166 184.773L402.413 238.387L495.303 221.318L406.324 252.981L500.466 260.535L406.324 268.09L495.303 299.752L402.413 282.684L480.166 336.297L394.859 295.768L456.086 367.679L384.175 306.452L424.704 391.759L371.091 314.006L388.159 406.896L356.497 317.917L348.942 412.059L341.388 317.917L309.725 406.896L326.794 314.006L273.18 391.759L313.709 306.452L241.799 367.679L303.025 295.768L217.719 336.297L295.471 282.684L202.581 299.752L291.56 268.09L197.418 260.535L291.56 252.981L202.581 221.318L295.471 238.387L217.719 184.773L303.025 225.302L241.799 153.392L313.709 214.618L273.18 129.312L326.794 207.064L309.725 114.174L341.388 203.153L348.942 109.011Z" fill="#7171FF"/>
<path d="M275.474 203.038L349.453 213.75L423.294 203.038L426.363 304.952H269.914L275.474 203.038Z" fill="white"/>
<path d="M287.582 191.782C287.582 191.782 296.354 193.204 301.416 194.435C306.79 195.741 315.376 198.793 315.376 198.793L327.841 204.159L341.125 210.842L344.632 213.152L288.342 212.48L287.582 191.782Z" fill="white"/>
<path d="M410.43 191.782C410.43 191.782 401.657 193.204 396.595 194.435C391.221 195.741 382.635 198.793 382.635 198.793L370.17 204.159L356.886 210.842L353.38 213.152L409.67 212.48L410.43 191.782Z" fill="white"/>
<path d="M415.985 197.169C415.985 197.169 407.213 198.591 402.151 199.822C396.777 201.128 388.19 204.181 388.19 204.181L375.726 209.546L362.442 216.229L358.935 218.539L415.225 217.867L415.985 197.169Z" fill="white"/>
<path d="M281.152 197.169C281.152 197.169 289.924 198.591 294.986 199.822C300.36 201.128 308.947 204.181 308.947 204.181L321.411 209.546L334.695 216.229L338.202 218.539L281.912 217.867L281.152 197.169Z" fill="white"/>
<mask id="mask6_3_721" style="mask-type:luminance" maskUnits="userSpaceOnUse" x="268" y="190" width="161" height="121">
<path d="M428.497 191.006V310.082H269.387V191.006H428.497Z" fill="white" stroke="white"/>
</mask>
<g mask="url(#mask6_3_721)">
<path d="M287.366 191.09L287.37 191.091C314.312 194.172 341.737 210.317 344.653 212.05L344.772 212.12H353.116L353.235 212.049C356.115 210.318 383.541 194.172 410.483 191.091L410.482 191.09C410.612 191.076 410.728 191.102 410.828 191.161L410.924 191.233L410.926 191.234C411.037 191.332 411.109 191.492 411.109 191.658V196.549H416.86C417.143 196.549 417.387 196.774 417.387 197.113V202.339H423.361C423.644 202.339 423.888 202.564 423.888 202.903V209.758H427.974C428.255 209.758 428.497 209.981 428.497 210.322V304.489C428.233 304.497 427.863 304.509 427.394 304.526C426.354 304.562 424.825 304.619 422.862 304.701C418.937 304.866 413.281 305.133 406.353 305.543C392.503 306.362 373.571 307.752 353.235 310.03H344.65C324.33 307.735 305.398 306.347 291.544 305.531C284.614 305.124 278.954 304.859 275.026 304.697C273.063 304.615 271.532 304.56 270.491 304.525C270.021 304.509 269.651 304.496 269.387 304.488V210.322C269.387 209.983 269.63 209.758 269.913 209.758H274.03V202.87C274.03 202.528 274.272 202.306 274.554 202.306H280.531V197.113C280.532 196.772 280.774 196.549 281.055 196.549H286.775V191.658C286.775 191.495 286.848 191.333 286.96 191.233C287.056 191.147 287.164 191.101 287.267 191.09H287.366ZM345.146 305.408H352.71V213.249H345.146V305.408ZM409.464 192.361C383.736 195.668 357.913 210.556 354.033 212.887L353.791 213.032V305.01L354.542 304.574C360.842 300.919 385.298 287.524 409.59 284.476L410.028 284.421V192.287L409.464 192.361ZM275.08 296.913L275.571 296.922C281.23 297.023 309.558 297.953 335.346 304.031L335.633 303.074C323.555 298.646 300.986 291.404 281.053 290.6H281.054C280.773 290.583 280.531 290.337 280.531 290.034V203.467H275.08V296.913ZM417.355 290.034C417.355 290.298 417.17 290.52 416.935 290.583L416.83 290.6C396.897 291.405 374.362 298.647 362.251 303.074L362.537 304.031C388.294 297.988 416.622 297.056 422.316 296.922L422.804 296.91V203.467H417.355V290.034ZM281.581 289.478L282.055 289.503C298.731 290.365 317.126 295.571 329.666 299.791L330.04 298.865C319.037 293.634 303.095 287.318 287.292 285.513H287.291C287.014 285.478 286.807 285.238 286.807 284.946V197.68H281.581V289.478ZM411.077 284.946C411.077 285.227 410.848 285.479 410.586 285.513C394.785 287.319 378.846 293.635 367.844 298.865L368.219 299.791C380.792 295.536 399.152 290.365 415.831 289.503L416.306 289.478V197.68H411.077V284.946ZM344.096 213.032L343.854 212.887C340.033 210.592 314.92 196.098 289.624 192.522L288.419 192.361L287.856 192.288V284.421L288.294 284.476C312.589 287.524 337.043 300.919 343.345 304.574L344.096 305.01V213.032Z" fill="black" stroke="black"/>
</g>
<path d="M404.332 207.048C404.557 206.992 404.849 207.16 404.905 207.478C404.951 207.748 404.786 208.011 404.572 208.103L404.477 208.133L404.471 208.134C385.176 211.876 366.705 221.489 359.65 225.455L359.639 225.462L359.628 225.468C359.563 225.509 359.499 225.525 359.413 225.525C359.271 225.525 359.112 225.454 359.002 225.299L358.959 225.227C358.815 224.94 358.93 224.593 359.165 224.471L359.172 224.468L359.178 224.464C366.307 220.478 384.886 210.83 404.309 207.053L404.321 207.051L404.332 207.048Z" fill="black" stroke="black"/>
<path d="M404.308 216.335C404.578 216.287 404.855 216.473 404.905 216.761C404.951 217.03 404.788 217.292 404.571 217.386L404.475 217.416L404.471 217.417C385.176 221.16 366.705 230.772 359.65 234.738L359.639 234.744L359.628 234.751C359.563 234.792 359.499 234.807 359.413 234.807C359.271 234.807 359.112 234.737 359.002 234.582L358.959 234.51C358.815 234.223 358.93 233.876 359.165 233.754L359.172 233.751L359.178 233.747C366.307 229.761 384.886 220.113 404.309 216.336L404.308 216.335Z" fill="black" stroke="black"/>
<path d="M404.332 225.646C404.557 225.59 404.849 225.758 404.905 226.076C404.951 226.345 404.788 226.607 404.571 226.701L404.475 226.731L404.471 226.732C385.176 230.475 366.705 240.087 359.65 244.053L359.639 244.06L359.628 244.066C359.563 244.107 359.499 244.123 359.413 244.123C359.271 244.123 359.112 244.052 359.002 243.897L358.959 243.825C358.815 243.538 358.93 243.191 359.165 243.069L359.172 243.066L359.178 243.062C366.307 239.076 384.886 229.428 404.309 225.651L404.321 225.649L404.332 225.646Z" fill="black" stroke="black"/>
<path d="M404.305 234.935C404.543 234.891 404.785 235.027 404.875 235.256L404.905 235.359C404.951 235.628 404.788 235.89 404.571 235.984L404.475 236.014L404.471 236.015C385.176 239.755 366.705 249.37 359.65 253.336L359.639 253.342L359.628 253.349C359.563 253.39 359.499 253.405 359.413 253.405C359.252 253.405 359.069 253.314 358.961 253.109C358.815 252.824 358.928 252.475 359.165 252.352L359.172 252.349L359.178 252.345C366.306 248.36 384.883 238.711 404.304 234.934L404.305 234.935Z" fill="black" stroke="black"/>
<path d="M404.308 244.215C404.564 244.17 404.851 244.369 404.904 244.642H404.905C404.951 244.91 404.788 245.173 404.571 245.267L404.475 245.296L404.471 245.297C385.176 249.038 366.705 258.652 359.65 262.619L359.642 262.623L359.633 262.628C359.561 262.672 359.494 262.688 359.413 262.688C359.273 262.688 359.114 262.617 359.003 262.46L358.959 262.388C358.816 262.101 358.929 261.757 359.165 261.634L359.172 261.631L359.178 261.627C366.307 257.642 384.886 247.993 404.309 244.216L404.308 244.215Z" fill="black" stroke="black"/>
<path d="M404.332 253.526C404.53 253.478 404.778 253.599 404.873 253.845L404.905 253.957V253.958C404.95 254.226 404.788 254.488 404.571 254.582L404.475 254.612H404.471C385.176 258.352 366.705 267.967 359.65 271.933L359.642 271.938L359.633 271.943C359.561 271.987 359.494 272.004 359.413 272.004C359.273 272.004 359.114 271.932 359.003 271.776L358.959 271.704C358.815 271.417 358.929 271.073 359.165 270.95L359.172 270.946L359.178 270.942C366.307 266.957 384.886 257.308 404.309 253.531L404.321 253.529L404.332 253.526Z" fill="black" stroke="black"/>
<path d="M404.305 262.815C404.544 262.771 404.786 262.907 404.876 263.135L404.905 263.238C404.951 263.509 404.787 263.771 404.571 263.865L404.475 263.894L404.471 263.895C385.176 267.636 366.705 277.25 359.65 281.217L359.642 281.221L359.633 281.226C359.565 281.268 359.499 281.284 359.413 281.284C359.271 281.284 359.112 281.213 359.002 281.057L358.959 280.986C358.815 280.698 358.93 280.354 359.163 280.233L359.171 280.229L359.178 280.225C366.306 276.24 384.883 266.592 404.304 262.814L404.305 262.815Z" fill="black" stroke="black"/>
<path d="M404.332 272.124C404.531 272.075 404.778 272.198 404.873 272.442L404.905 272.553C404.951 272.824 404.787 273.086 404.571 273.18L404.475 273.21H404.471C385.176 276.95 366.705 286.565 359.65 290.531L359.642 290.536L359.633 290.541C359.565 290.583 359.499 290.599 359.413 290.599C359.271 290.599 359.112 290.528 359.002 290.373L358.959 290.302C358.815 290.013 358.93 289.668 359.163 289.548L359.171 289.545L359.178 289.54C366.195 285.617 384.308 276.207 403.399 272.311L404.309 272.129L404.321 272.127L404.332 272.124Z" fill="black" stroke="black"/>
<path d="M293.583 207.053C313.001 210.798 331.611 220.479 338.708 224.464L338.714 224.467L338.72 224.471C338.946 224.589 339.077 224.935 338.919 225.271C338.81 225.468 338.63 225.558 338.47 225.558C338.384 225.558 338.322 225.542 338.26 225.503L338.249 225.495L338.237 225.488L336.782 224.682C328.867 220.346 311.504 211.676 293.416 208.167L293.321 208.657L293.416 208.166L293.405 208.164L293.305 208.137C293.115 208.06 292.977 207.863 292.971 207.629L292.98 207.51V207.507C293.033 207.184 293.316 207.006 293.583 207.053Z" fill="black" stroke="black"/>
<path d="M293.579 216.335V216.336C312.99 220.078 331.594 229.753 338.698 233.741H338.699C338.962 233.896 339.068 234.233 338.919 234.552C338.81 234.75 338.63 234.841 338.47 234.841C338.384 234.841 338.322 234.824 338.26 234.785L338.249 234.777L338.237 234.77L336.782 233.964C328.998 229.698 312.081 221.246 294.32 217.629L293.416 217.449L293.405 217.447L293.305 217.419C293.115 217.342 292.977 217.146 292.971 216.912L292.98 216.792V216.79C293.033 216.465 293.316 216.288 293.579 216.335Z" fill="black" stroke="black"/>
<path d="M293.579 225.65V225.651C312.998 229.395 331.611 239.076 338.708 243.061L338.714 243.065L338.72 243.068C338.946 243.186 339.076 243.532 338.919 243.868C338.81 244.066 338.63 244.156 338.47 244.156C338.384 244.156 338.322 244.139 338.26 244.1L338.249 244.093L338.237 244.086L336.782 243.279C328.998 239.014 312.081 230.561 294.32 226.944L293.416 226.764L293.405 226.762L293.305 226.734C293.115 226.657 292.977 226.461 292.971 226.227L292.98 226.107V226.105C293.033 225.78 293.316 225.604 293.579 225.65Z" fill="black" stroke="black"/>
<path d="M293.582 234.935V234.934C312.992 238.677 331.594 248.351 338.698 252.339H338.699C338.962 252.494 339.068 252.831 338.919 253.15C338.81 253.348 338.63 253.438 338.47 253.438C338.384 253.438 338.322 253.422 338.26 253.383L338.249 253.376L338.237 253.368L336.782 252.562C328.998 248.296 312.081 239.843 294.32 236.227L293.416 236.047L293.407 236.046L293.307 236.017C293.115 235.939 292.977 235.743 292.971 235.51L292.98 235.391V235.388C293.033 235.06 293.317 234.886 293.582 234.935Z" fill="black" stroke="black"/>
<path d="M293.582 244.25V244.249C313 247.994 331.611 257.674 338.708 261.659L338.714 261.663L338.72 261.667C338.946 261.785 339.076 262.13 338.919 262.466C338.81 262.663 338.63 262.754 338.47 262.754C338.384 262.754 338.322 262.737 338.26 262.698L338.249 262.691L338.237 262.684L336.782 261.877C328.998 257.612 312.081 249.159 294.32 245.542L293.416 245.362L293.407 245.361L293.307 245.332C293.115 245.254 292.977 245.058 292.971 244.825L292.98 244.706V244.703C293.033 244.376 293.317 244.201 293.582 244.25Z" fill="black" stroke="black"/>
<path d="M293.582 253.533V253.532C312.992 257.275 331.594 266.949 338.698 270.937H338.699C338.962 271.091 339.069 271.426 338.92 271.747C338.811 271.946 338.631 272.036 338.47 272.036C338.384 272.036 338.322 272.02 338.26 271.981L338.249 271.974L338.237 271.966L336.782 271.16C328.998 266.894 312.081 258.441 294.32 254.825L293.416 254.645L293.407 254.644L293.307 254.615C293.115 254.537 292.977 254.341 292.971 254.108L292.98 253.989V253.986C293.033 253.658 293.317 253.484 293.582 253.533Z" fill="black" stroke="black"/>
<path d="M293.582 262.848V262.847C313 266.592 331.611 276.272 338.708 280.257L338.714 280.261L338.72 280.265C338.943 280.382 339.079 280.692 338.916 281.069C338.807 281.263 338.629 281.352 338.47 281.352C338.384 281.352 338.322 281.335 338.26 281.296L338.249 281.289L338.237 281.282L336.782 280.475C328.998 276.21 312.081 267.757 294.32 264.14L293.416 263.96L293.407 263.959L293.307 263.93C293.115 263.852 292.977 263.656 292.971 263.423L292.98 263.304V263.301C293.033 262.974 293.317 262.799 293.582 262.848Z" fill="black" stroke="black"/>
<path d="M293.582 272.131V272.13C313 275.872 331.611 285.555 338.708 289.54L338.714 289.545L338.722 289.548C338.946 289.663 339.077 290.008 338.918 290.345C338.809 290.545 338.63 290.635 338.47 290.635C338.389 290.634 338.324 290.618 338.256 290.576L338.237 290.564L336.782 289.758C328.999 285.492 312.081 277.037 294.32 273.423L293.416 273.243L293.407 273.242L293.307 273.213C293.115 273.135 292.977 272.939 292.971 272.706L292.98 272.587V272.584C293.033 272.256 293.317 272.082 293.582 272.131Z" fill="black" stroke="black"/>
<mask id="mask7_3_721" style="mask-type:luminance" maskUnits="userSpaceOnUse" x="319" y="199" width="105" height="68">
<path d="M319.333 199.261H423.166V266.64H319.333V199.261Z" fill="white"/>
</mask>
<g mask="url(#mask7_3_721)">
<mask id="mask8_3_721" style="mask-type:luminance" maskUnits="userSpaceOnUse" x="305" y="154" width="130" height="114">
<path d="M305.163 156.867L432.085 154.253L434.145 265.031L307.222 267.646L305.163 156.867Z" fill="white"/>
</mask>
<g mask="url(#mask8_3_721)">
<mask id="mask9_3_721" style="mask-type:luminance" maskUnits="userSpaceOnUse" x="276" y="154" width="159" height="154">
<path d="M276.845 157.45L432.209 154.251L434.991 303.951L279.627 307.152L276.845 157.45Z" fill="white"/>
</mask>
<g mask="url(#mask9_3_721)">
<mask id="mask10_3_721" style="mask-type:luminance" maskUnits="userSpaceOnUse" x="276" y="154" width="159" height="154">
<path d="M276.845 157.45L432.209 154.251L434.991 303.951L279.627 307.152L276.845 157.45Z" fill="white"/>
</mask>
<g mask="url(#mask10_3_721)">
<path fill-rule="evenodd" clip-rule="evenodd" d="M319.935 243.613L319.366 241.93C319.366 241.93 324.659 237.869 324.628 236.177C324.596 234.485 330.775 220.243 332.906 219.352C335.038 218.461 348.519 207.175 349.865 207.428C351.214 207.683 369.619 201.376 371.471 199.926C373.323 198.477 381.717 202.256 383.915 205.034C386.115 207.812 408.425 223.725 408.746 226.54C409.066 229.357 420.941 232.781 422.278 232.473C423.616 232.163 422.808 260.972 422.808 260.972C422.808 260.972 412.068 260.912 401.365 262.824C398.691 263.304 394.776 263.914 390.314 264.522C385.854 265.129 376.655 256.788 371.799 257.258C366.941 257.73 371.757 250.528 357.14 249.97C353.281 249.742 363.324 263.503 357.396 265.988C354.431 267.09 353.851 264.774 353.094 263.329C351.719 264.721 352.638 266.298 349.078 266.16C345.652 266.02 338.349 252.267 339.87 247.436C338.24 246.34 334.347 260.818 328.434 260.376C323.855 259.623 328.321 247.11 322.277 246.952C320.394 246.709 319.933 243.613 319.933 243.613H319.935Z" fill="#C57E4F"/>
</g>
</g>
</g>
</g>
<mask id="mask11_3_721" style="mask-type:luminance" maskUnits="userSpaceOnUse" x="307" y="249" width="20" height="18">
<path d="M307.48 249.171H326.919V266.141H307.48V249.171Z" fill="white"/>
</mask>
<g mask="url(#mask11_3_721)">
<mask id="mask12_3_721" style="mask-type:luminance" maskUnits="userSpaceOnUse" x="305" y="154" width="130" height="114">
<path d="M305.163 156.867L432.085 154.253L434.145 265.031L307.222 267.646L305.163 156.867Z" fill="white"/>
</mask>
<g mask="url(#mask12_3_721)">
<mask id="mask13_3_721" style="mask-type:luminance" maskUnits="userSpaceOnUse" x="276" y="154" width="159" height="154">
<path d="M276.845 157.45L432.209 154.251L434.991 303.951L279.627 307.152L276.845 157.45Z" fill="white"/>
</mask>
<g mask="url(#mask13_3_721)">
<mask id="mask14_3_721" style="mask-type:luminance" maskUnits="userSpaceOnUse" x="276" y="154" width="159" height="154">
<path d="M276.845 157.45L432.209 154.251L434.991 303.951L279.627 307.152L276.845 157.45Z" fill="white"/>
</mask>
<g mask="url(#mask14_3_721)">
<mask id="mask15_3_721" style="mask-type:luminance" maskUnits="userSpaceOnUse" x="307" y="249" width="20" height="18">
<path d="M307.493 266.022L318.549 254.221C320.253 253.267 321.574 252.121 322.502 250.187L323.559 249.317L326.574 252.643L325.194 253.996L322.301 253.86L322.459 253.01L320.733 254.558L321.742 255.153L319.46 259.939L307.493 266.022Z" fill="white"/>
</mask>
<g mask="url(#mask15_3_721)">
<path d="M307.181 249.323L307.5 266.414L326.884 266.014L326.567 248.926L307.181 249.323Z" fill="url(#paint0_linear_3_721)"/>
</g>
</g>
</g>
</g>
</g>
<mask id="mask16_3_721" style="mask-type:luminance" maskUnits="userSpaceOnUse" x="323" y="155" width="108" height="98">
<path d="M323.126 155.839H430.278V252.166H323.126V155.839Z" fill="white"/>
</mask>
<g mask="url(#mask16_3_721)">
<mask id="mask17_3_721" style="mask-type:luminance" maskUnits="userSpaceOnUse" x="305" y="154" width="130" height="114">
<path d="M305.163 156.867L432.085 154.253L434.145 265.031L307.222 267.646L305.163 156.867Z" fill="white"/>
</mask>
<g mask="url(#mask17_3_721)">
<mask id="mask18_3_721" style="mask-type:luminance" maskUnits="userSpaceOnUse" x="276" y="154" width="159" height="154">
<path d="M276.845 157.45L432.209 154.251L434.991 303.951L279.627 307.152L276.845 157.45Z" fill="white"/>
</mask>
<g mask="url(#mask18_3_721)">
<mask id="mask19_3_721" style="mask-type:luminance" maskUnits="userSpaceOnUse" x="276" y="154" width="159" height="154">
<path d="M276.845 157.45L432.209 154.251L434.991 303.951L279.627 307.152L276.845 157.45Z" fill="white"/>
</mask>
<g mask="url(#mask19_3_721)">
<path fill-rule="evenodd" clip-rule="evenodd" d="M329.071 241.275L325.42 244.044C322.113 246.555 323.854 249.898 324.602 251.047C325.352 252.197 328.565 252.144 329.915 250.938L370.621 214.57L429.403 159.865C431.841 157.596 427.859 154.812 425.177 157.157L329.074 241.271L329.071 241.275Z" fill="#454239"/>
</g>
</g>
</g>
</g>
<mask id="mask20_3_721" style="mask-type:luminance" maskUnits="userSpaceOnUse" x="323" y="225" width="30" height="28">
<path d="M323.126 225.214H352.047V252.166H323.126V225.214Z" fill="white"/>
</mask>
<g mask="url(#mask20_3_721)">
<mask id="mask21_3_721" style="mask-type:luminance" maskUnits="userSpaceOnUse" x="305" y="154" width="130" height="114">
<path d="M305.163 156.867L432.085 154.253L434.145 265.031L307.222 267.646L305.163 156.867Z" fill="white"/>
</mask>
<g mask="url(#mask21_3_721)">
<mask id="mask22_3_721" style="mask-type:luminance" maskUnits="userSpaceOnUse" x="276" y="154" width="159" height="154">
<path d="M276.845 157.45L432.209 154.251L434.991 303.951L279.627 307.153L276.845 157.45Z" fill="white"/>
</mask>
<g mask="url(#mask22_3_721)">
<mask id="mask23_3_721" style="mask-type:luminance" maskUnits="userSpaceOnUse" x="276" y="154" width="159" height="154">
<path d="M276.845 157.45L432.209 154.251L434.991 303.951L279.627 307.153L276.845 157.45Z" fill="white"/>
</mask>
<g mask="url(#mask23_3_721)">
<mask id="mask24_3_721" style="mask-type:luminance" maskUnits="userSpaceOnUse" x="323" y="225" width="29" height="27">
<path d="M328.973 241.32L325.322 244.089C322.014 246.6 323.754 249.943 324.504 251.094C325.252 252.242 328.463 252.185 329.817 250.982L351.36 231.849C352.744 230.621 347.893 224.686 346.669 225.764L328.973 241.32Z" fill="white"/>
</mask>
<g mask="url(#mask24_3_721)">
<path d="M321.503 224.698L322.026 252.876L353.255 252.232L352.731 224.054L321.503 224.698Z" fill="url(#paint1_linear_3_721)"/>
</g>
</g>
</g>
</g>
</g>
<mask id="mask25_3_721" style="mask-type:luminance" maskUnits="userSpaceOnUse" x="319" y="199" width="105" height="63">
<path d="M319.333 199.261H423.64V261.649H319.333V199.261Z" fill="white"/>
</mask>
<g mask="url(#mask25_3_721)">
<mask id="mask26_3_721" style="mask-type:luminance" maskUnits="userSpaceOnUse" x="305" y="154" width="130" height="114">
<path d="M305.163 156.867L432.085 154.253L434.145 265.031L307.222 267.646L305.163 156.867Z" fill="white"/>
</mask>
<g mask="url(#mask26_3_721)">
<mask id="mask27_3_721" style="mask-type:luminance" maskUnits="userSpaceOnUse" x="276" y="154" width="159" height="154">
<path d="M276.845 157.45L432.209 154.251L434.991 303.951L279.627 307.152L276.845 157.45Z" fill="white"/>
</mask>
<g mask="url(#mask27_3_721)">
<mask id="mask28_3_721" style="mask-type:luminance" maskUnits="userSpaceOnUse" x="276" y="154" width="159" height="154">
<path d="M276.845 157.45L432.209 154.251L434.991 303.951L279.627 307.152L276.845 157.45Z" fill="white"/>
</mask>
<g mask="url(#mask28_3_721)">
<path fill-rule="evenodd" clip-rule="evenodd" d="M320.235 243.741L319.666 242.061C319.666 242.061 324.959 238 324.928 236.306C324.898 234.613 331.076 220.372 333.206 219.481C335.338 218.59 348.819 207.303 350.167 207.559C351.514 207.812 369.921 201.505 371.773 200.057C373.623 198.606 382.017 202.386 384.217 205.163C386.416 207.941 408.725 223.854 409.046 226.669C409.366 229.486 421.243 232.911 422.579 232.601C423.916 232.291 423.027 260.383 423.027 260.383C423.027 260.383 412.339 259.346 401.636 261.261C390.933 263.175 374.92 253.907 373.836 253.365C372.753 252.823 365.66 246.759 359.24 248.021C352.821 249.282 341.802 248.662 340.172 247.567C338.54 246.471 332.064 244.629 331.747 242.094C331.432 239.56 332.138 234.183 335.879 233.258C339.62 232.334 353.558 231.2 358.411 232.229C363.263 233.258 371.04 232.816 373.407 230.227C375.774 227.638 373.109 214.143 374.14 211.863C375.172 209.584 364.415 208.676 361.237 211C358.059 213.324 338.079 221.639 338.679 225.014C339.279 228.39 329.015 235.658 328.269 238.778C327.521 241.899 325.107 245.9 323.224 245.658C321.34 245.414 320.235 243.743 320.235 243.743V243.741Z" fill="#FFB17C"/>
</g>
</g>
</g>
</g>
<mask id="mask29_3_721" style="mask-type:luminance" maskUnits="userSpaceOnUse" x="360" y="155" width="71" height="60">
<path d="M360.581 155.839H430.752V214.733H360.581V155.839Z" fill="white"/>
</mask>
<g mask="url(#mask29_3_721)">
<mask id="mask30_3_721" style="mask-type:luminance" maskUnits="userSpaceOnUse" x="305" y="154" width="130" height="114">
<path d="M305.163 156.867L432.085 154.253L434.145 265.031L307.222 267.646L305.163 156.867Z" fill="white"/>
</mask>
<g mask="url(#mask30_3_721)">
<mask id="mask31_3_721" style="mask-type:luminance" maskUnits="userSpaceOnUse" x="276" y="154" width="159" height="154">
<path d="M276.845 157.45L432.209 154.251L434.991 303.951L279.627 307.152L276.845 157.45Z" fill="white"/>
</mask>
<g mask="url(#mask31_3_721)">
<mask id="mask32_3_721" style="mask-type:luminance" maskUnits="userSpaceOnUse" x="276" y="154" width="159" height="154">
<path d="M276.845 157.45L432.209 154.251L434.991 303.951L279.627 307.152L276.845 157.45Z" fill="white"/>
</mask>
<g mask="url(#mask32_3_721)">
<path fill-rule="evenodd" clip-rule="evenodd" d="M371.083 214.24L429.865 159.534C432.302 157.267 428.322 154.485 425.636 156.826L360.898 213.302L371.083 214.238V214.24Z" fill="#454239"/>
</g>
</g>
</g>
</g>
<path d="M334.155 235.961L333.416 241.283C333.283 242.249 337.016 243.646 338.503 241.794C340.008 240.164 339.439 237.853 339.439 237.853C339.439 237.853 338.694 235.514 336.826 235.698L334.155 235.961Z" fill="#EFEFEF"/>
<defs>
<linearGradient id="paint0_linear_3_721" x1="306.318" y1="250.095" x2="323.337" y2="269.178" gradientUnits="userSpaceOnUse">
<stop stop-color="#8D8D8D"/>
<stop offset="0.25" stop-color="#8D8D8D"/>
<stop offset="0.375" stop-color="#8D8D8D"/>
<stop offset="0.40625" stop-color="#8D8D8D"/>
<stop offset="0.421875" stop-color="#8D8D8D"/>
<stop offset="0.429688" stop-color="#8D8D8D"/>
<stop offset="0.433594" stop-color="#909090"/>
<stop offset="0.4375" stop-color="#929292"/>
<stop offset="0.441406" stop-color="#989898"/>
<stop offset="0.445312" stop-color="#9D9D9D"/>
<stop offset="0.449219" stop-color="#A2A2A2"/>
<stop offset="0.453125" stop-color="#A8A8A8"/>
<stop offset="0.457031" stop-color="#ADADAD"/>
<stop offset="0.460938" stop-color="#B2B2B2"/>
<stop offset="0.464844" stop-color="#B8B8B8"/>
<stop offset="0.46875" stop-color="#BDBDBD"/>
<stop offset="0.472656" stop-color="#C2C2C2"/>
<stop offset="0.476562" stop-color="#C8C8C8"/>
<stop offset="0.480469" stop-color="#CDCDCD"/>
<stop offset="0.484375" stop-color="#D2D2D2"/>
<stop offset="0.488281" stop-color="#D8D8D8"/>
<stop offset="0.492188" stop-color="#DDDDDD"/>
<stop offset="0.496094" stop-color="#E2E2E2"/>
<stop offset="0.5" stop-color="#E8E8E8"/>
<stop offset="0.503906" stop-color="#EDEDED"/>
<stop offset="0.507812" stop-color="#F2F2F2"/>
<stop offset="0.511719" stop-color="#F8F8F8"/>
<stop offset="0.515625" stop-color="#FDFDFD"/>
<stop offset="0.519531" stop-color="#DEDEDE"/>
<stop offset="0.523438" stop-color="#BFBFBF"/>
<stop offset="0.527344" stop-color="#979797"/>
<stop offset="0.53125" stop-color="#707070"/>
<stop offset="0.535156" stop-color="#6D6D6D"/>
<stop offset="0.539062" stop-color="#6A6A6A"/>
<stop offset="0.542969" stop-color="#717171"/>
<stop offset="0.546875" stop-color="#797979"/>
<stop offset="0.550781" stop-color="#808080"/>
<stop offset="0.554688" stop-color="#878787"/>
<stop offset="0.558594" stop-color="#8E8E8E"/>
<stop offset="0.5625" stop-color="#959595"/>
<stop offset="0.566406" stop-color="#9C9C9C"/>
<stop offset="0.570312" stop-color="#A3A3A3"/>
<stop offset="0.574219" stop-color="#AAAAAA"/>
<stop offset="0.578125" stop-color="#B1B1B1"/>
<stop offset="0.582031" stop-color="#B8B8B8"/>
<stop offset="0.585938" stop-color="#BFBFBF"/>
<stop offset="0.589844" stop-color="#C6C6C6"/>
<stop offset="0.59375" stop-color="#CDCDCD"/>
<stop offset="0.597656" stop-color="#D4D4D4"/>
<stop offset="0.601562" stop-color="#DADADA"/>
<stop offset="0.609375" stop-color="#DADADA"/>
<stop offset="0.625" stop-color="#DADADA"/>
<stop offset="0.75" stop-color="#DADADA"/>
<stop offset="1" stop-color="#DADADA"/>
</linearGradient>
<linearGradient id="paint1_linear_3_721" x1="326.855" y1="220.171" x2="353.67" y2="251.88" gradientUnits="userSpaceOnUse">
<stop stop-color="#525252"/>
<stop offset="0.25" stop-color="#525252"/>
<stop offset="0.3125" stop-color="#525252"/>
<stop offset="0.34375" stop-color="#525252"/>
<stop offset="0.359375" stop-color="#525252"/>
<stop offset="0.367188" stop-color="#525252"/>
<stop offset="0.371094" stop-color="#555555"/>
<stop offset="0.375" stop-color="#595959"/>
<stop offset="0.378906" stop-color="#5E5E5E"/>
<stop offset="0.382812" stop-color="#636363"/>
<stop offset="0.386719" stop-color="#696969"/>
<stop offset="0.390625" stop-color="#6E6E6E"/>
<stop offset="0.394531" stop-color="#737373"/>
<stop offset="0.398438" stop-color="#797979"/>
<stop offset="0.402344" stop-color="#7E7E7E"/>
<stop offset="0.40625" stop-color="#838383"/>
<stop offset="0.410156" stop-color="#898989"/>
<stop offset="0.414062" stop-color="#8E8E8E"/>
<stop offset="0.417969" stop-color="#939393"/>
<stop offset="0.421875" stop-color="#999999"/>
<stop offset="0.425781" stop-color="#9E9E9E"/>
<stop offset="0.429688" stop-color="#A3A3A3"/>
<stop offset="0.433594" stop-color="#A9A9A9"/>
<stop offset="0.4375" stop-color="#AEAEAE"/>
<stop offset="0.441406" stop-color="#B3B3B3"/>
<stop offset="0.445313" stop-color="#B9B9B9"/>
<stop offset="0.449219" stop-color="#BEBEBE"/>
<stop offset="0.453125" stop-color="#C3C3C3"/>
<stop offset="0.457031" stop-color="#C9C9C9"/>
<stop offset="0.460938" stop-color="#CECECE"/>
<stop offset="0.464844" stop-color="#D2D2D2"/>
<stop offset="0.46875" stop-color="#D5D5D5"/>
<stop offset="0.472656" stop-color="#D0D0D0"/>
<stop offset="0.476562" stop-color="#CBCBCB"/>
<stop offset="0.480469" stop-color="#C6C6C6"/>
<stop offset="0.484375" stop-color="#C2C2C2"/>
<stop offset="0.488281" stop-color="#BDBDBD"/>
<stop offset="0.492188" stop-color="#B8B8B8"/>
<stop offset="0.496094" stop-color="#B3B3B3"/>
<stop offset="0.5" stop-color="#AEAEAE"/>
<stop offset="0.503906" stop-color="#B4B4B4"/>
<stop offset="0.507812" stop-color="#BABABA"/>
<stop offset="0.511719" stop-color="#C0C0C0"/>
<stop offset="0.515625" stop-color="#C7C7C7"/>
<stop offset="0.519531" stop-color="#C2C2C2"/>
<stop offset="0.523438" stop-color="#BEBEBE"/>
<stop offset="0.527344" stop-color="#BABABA"/>
<stop offset="0.53125" stop-color="#B6B6B6"/>
<stop offset="0.535156" stop-color="#B1B1B1"/>
<stop offset="0.539062" stop-color="#ADADAD"/>
<stop offset="0.542969" stop-color="#A9A9A9"/>
<stop offset="0.546875" stop-color="#A5A5A5"/>
<stop offset="0.550781" stop-color="#A0A0A0"/>
<stop offset="0.554688" stop-color="#9C9C9C"/>
<stop offset="0.558594" stop-color="#989898"/>
<stop offset="0.5625" stop-color="#949494"/>
<stop offset="0.566406" stop-color="#8F8F8F"/>
<stop offset="0.570312" stop-color="#8B8B8B"/>
<stop offset="0.574219" stop-color="#8B8B8B"/>
<stop offset="0.578125" stop-color="#8A8A8A"/>
<stop offset="0.59375" stop-color="#8A8A8A"/>
<stop offset="0.625" stop-color="#8A8A8A"/>
<stop offset="0.75" stop-color="#8A8A8A"/>
<stop offset="1" stop-color="#8A8A8A"/>
</linearGradient>
</defs>
</svg>
