<svg width="1871" height="535" viewBox="0 0 1871 535" fill="none" xmlns="http://www.w3.org/2000/svg">
<mask id="mask0_3_727" style="mask-type:luminance" maskUnits="userSpaceOnUse" x="68" y="0" width="408" height="409">
<path d="M68.864 0.962158H475.965V408.069H68.864V0.962158Z" fill="white"/>
</mask>
<g mask="url(#mask0_3_727)">
<mask id="mask1_3_727" style="mask-type:luminance" maskUnits="userSpaceOnUse" x="68" y="0" width="408" height="409">
<path d="M272.414 0.962158C159.995 0.962158 68.864 92.0934 68.864 204.513C68.864 316.932 159.995 408.069 272.414 408.069C384.834 408.069 475.965 316.932 475.965 204.513C475.965 92.0934 384.834 0.962158 272.414 0.962158Z" fill="white"/>
</mask>
<g mask="url(#mask1_3_727)">
<path d="M68.864 0.962158H475.965V408.069H68.864V0.962158Z" fill="#FF4A39"/>
</g>
</g>
<mask id="mask2_3_727" style="mask-type:luminance" maskUnits="userSpaceOnUse" x="144" y="76" width="257" height="257">
<path d="M144.131 76.2296H400.697V332.802H144.131V76.2296Z" fill="white"/>
</mask>
<g mask="url(#mask2_3_727)">
<mask id="mask3_3_727" style="mask-type:luminance" maskUnits="userSpaceOnUse" x="144" y="76" width="257" height="257">
<path d="M272.414 76.2296C201.564 76.2296 144.131 133.663 144.131 204.513C144.131 275.363 201.564 332.802 272.414 332.802C343.264 332.802 400.697 275.363 400.697 204.513C400.697 133.663 343.264 76.2296 272.414 76.2296Z" fill="white"/>
</mask>
<g mask="url(#mask3_3_727)">
<path d="M144.131 76.2296H400.697V332.802H144.131V76.2296Z" fill="#FEFEFE"/>
</g>
</g>
<mask id="mask4_3_727" style="mask-type:luminance" maskUnits="userSpaceOnUse" x="0" y="413" width="136" height="122">
<path d="M0.295898 413.487H135.742V534.357H0.295898V413.487Z" fill="white"/>
</mask>
<g mask="url(#mask4_3_727)">
<path d="M0.308105 446.789C0.308105 446.789 49.1319 425.306 135.187 413.945V507.932C135.187 507.932 80.2371 502.251 12.0656 533.863L57.0882 481.189L0.308105 446.789Z" fill="#3E9C5B"/>
</g>
<path d="M13.6641 448.534C13.3835 448.534 13.1333 448.369 13.0174 448.082C12.8771 447.722 13.0479 447.326 13.414 447.185C14.1706 446.905 88.7852 418.246 130.745 426.404C131.141 426.483 131.361 426.849 131.306 427.215C131.221 427.582 130.885 427.838 130.489 427.783C88.895 419.711 14.677 448.229 13.9204 448.509C13.835 448.534 13.7496 448.564 13.6641 448.564V448.534Z" fill="white"/>
<path d="M27.6181 522.667C27.3619 522.667 27.1117 522.526 26.9958 522.276C26.825 521.941 26.9714 521.513 27.307 521.318C27.8378 521.068 80.6824 494.685 130.714 500.872C131.111 500.927 131.361 501.269 131.337 501.659C131.282 502.056 130.94 502.337 130.55 502.282C80.8838 496.15 28.4601 522.3 27.9537 522.587C27.8378 522.642 27.7585 522.667 27.6425 522.667H27.6181Z" fill="white"/>
<mask id="mask5_3_727" style="mask-type:luminance" maskUnits="userSpaceOnUse" x="409" y="413" width="136" height="122">
<path d="M409.087 413.487H544.606V534.357H409.087V413.487Z" fill="white"/>
</mask>
<g mask="url(#mask5_3_727)">
<path d="M544.527 446.789C544.527 446.789 495.703 425.306 409.648 413.945V507.932C409.648 507.932 464.598 502.251 532.769 533.863L487.747 481.189L544.527 446.765V446.789Z" fill="#3E9C5B"/>
</g>
<path d="M529.115 447.326C529.115 447.326 528.95 447.326 528.864 447.271C528.273 447.045 469.857 425.306 420.924 427.752C420.558 427.807 420.192 427.472 420.192 427.075C420.192 426.685 420.472 426.343 420.869 426.343C470.059 423.841 528.81 445.721 529.371 445.947C529.737 446.087 529.902 446.484 529.792 446.85C529.676 447.131 529.426 447.295 529.145 447.295L529.115 447.326Z" fill="white"/>
<path d="M513.226 520.08C513.226 520.08 513.031 520.08 512.915 520.025C512.549 519.854 474.952 502.337 415.579 502.001C415.188 502.001 414.877 501.69 414.877 501.293C414.877 500.903 415.188 500.592 415.579 500.592C475.288 500.958 513.141 518.591 513.507 518.762C513.843 518.926 514.013 519.354 513.843 519.689C513.733 519.939 513.477 520.08 513.196 520.08H513.226Z" fill="white"/>
<path d="M409.648 444.568V507.932L471.096 467.967C471.096 467.967 454.25 450.248 409.648 444.568Z" fill="black"/>
<path d="M135.187 437.93V507.962L73.739 463.806C73.739 463.806 90.5851 444.232 135.187 437.96V437.93Z" fill="black"/>
<path d="M76.5762 372.882C76.5762 372.882 253.109 282.129 471.096 372.882V467.967C471.096 467.967 261.914 363.181 76.5762 467.967V372.882Z" fill="#3E9C5B"/>
<path d="M465.245 381.009C465.245 381.009 465.08 381.009 464.994 380.954C352.105 336.127 254.122 338.513 191.826 348.385C124.302 359.105 82.9339 380.698 82.5129 380.899C82.1773 381.064 81.7563 380.954 81.555 380.619C81.3903 380.277 81.5001 379.856 81.8357 379.661C82.2567 379.435 123.795 357.75 191.521 347.012C254.012 337.079 352.301 334.693 465.47 379.63C465.836 379.771 466.007 380.198 465.867 380.533C465.751 380.814 465.501 380.985 465.22 380.985L465.245 381.009Z" fill="white"/>
<path d="M465.245 457.93C465.245 457.93 465.049 457.93 464.964 457.875C350.897 405.476 253 408.264 190.96 419.82C123.74 432.335 82.9644 457.588 82.5678 457.845C82.2567 458.04 81.8113 457.955 81.6099 457.619C81.4147 457.283 81.5001 456.862 81.8357 456.661C82.2323 456.411 123.179 431.041 190.649 418.472C252.884 406.855 351.123 404.073 465.556 456.637C465.891 456.801 466.062 457.222 465.891 457.564C465.782 457.814 465.531 457.985 465.245 457.985V457.93Z" fill="white"/>
<path d="M103.677 271.48C102.945 269.711 102.75 267.984 103.091 266.306C103.433 264.634 104.135 263.152 105.19 261.864C106.252 260.583 107.509 259.637 108.973 259.033C110.114 258.563 111.334 258.35 112.634 258.399C113.94 258.447 115.197 258.881 116.417 259.692C116.563 257.563 117.174 255.836 118.247 254.518C119.309 253.188 120.529 252.236 121.908 251.663C123.684 250.93 125.563 250.632 127.546 250.76C129.535 250.894 131.372 251.535 133.062 252.688C134.758 253.829 136.082 255.568 137.04 257.911L143.337 273.237L109.998 286.905L103.677 271.48ZM116.246 267.795C115.941 267.063 115.465 266.636 114.831 266.501C114.196 266.373 113.58 266.428 112.976 266.672C112.408 266.904 111.963 267.295 111.633 267.844C111.31 268.399 111.28 268.985 111.536 269.601L114.098 275.849L118.76 273.945L116.246 267.795ZM129.328 261.083C128.986 260.223 128.419 259.704 127.619 259.521C126.826 259.344 126.045 259.411 125.276 259.717C124.514 260.028 123.91 260.534 123.47 261.23C123.019 261.913 122.958 262.688 123.299 263.548L126.301 270.846L132.33 268.381L129.328 261.083Z" fill="#FEFEFE"/>
<path d="M94.1572 240.191L93.059 233.992L126.348 212.93L128.081 222.692L123.2 225.596L125.348 237.702L130.912 238.751L132.548 248.025L94.1572 240.191ZM107.922 234.504L115.878 235.847L116.708 235.969L115.659 230.111L115.122 230.429L107.922 234.504Z" fill="#FEFEFE"/>
<path d="M90.9854 212.353L91.205 203.542L118.735 204.25L119.125 189.118L127.618 189.338L127.008 213.28L90.9854 212.353Z" fill="#FEFEFE"/>
<path d="M131.19 174.192C130.811 175.889 130.201 177.499 129.359 179.025C128.511 180.538 127.462 181.85 126.211 182.954C124.942 184.046 123.49 184.809 121.842 185.248C120.201 185.687 118.37 185.687 116.351 185.248L92.5063 180.001L94.3856 171.41L118.181 176.633C119.499 176.926 120.597 176.633 121.476 175.754C122.355 174.876 122.934 173.82 123.209 172.582C123.49 171.312 123.416 170.086 122.989 168.896C122.568 167.713 121.696 166.968 120.378 166.675L96.5821 161.453L98.4614 152.862L122.306 158.109C124.295 158.548 125.936 159.317 127.236 160.403C128.554 161.477 129.56 162.764 130.262 164.259C130.976 165.76 131.397 167.371 131.531 169.092C131.678 170.8 131.562 172.502 131.19 174.192Z" fill="#FEFEFE"/>
<path d="M107.376 130.599C108.633 127.902 110.195 125.754 112.062 124.156C113.917 122.563 115.943 121.447 118.139 120.812C120.324 120.165 122.545 119.958 124.802 120.202C127.047 120.434 129.195 121.026 131.245 121.983C133.295 122.929 135.132 124.18 136.761 125.742C138.402 127.292 139.69 129.104 140.617 131.184C141.544 133.271 141.996 135.529 141.984 137.969C141.965 140.41 141.331 142.985 140.08 145.681L134.076 158.69L101.373 143.607L107.376 130.599ZM132.466 142.167C133.308 140.349 133.588 138.622 133.295 136.993C133.002 135.352 132.344 133.918 131.318 132.698C130.281 131.465 129.043 130.519 127.609 129.867C126.181 129.201 124.643 128.866 122.996 128.866C121.355 128.854 119.811 129.256 118.359 130.086C116.913 130.916 115.766 132.246 114.918 134.064L112.599 139.141L130.147 147.243L132.466 142.167Z" fill="#FEFEFE"/>
<path d="M160.667 112.122L148.562 128.962L142.167 124.374L145.633 119.541L129.11 107.68L125.645 112.512L119.128 107.827L131.234 90.9866L137.75 95.6725L134.26 100.529L150.783 112.39L154.273 107.534L160.667 112.122Z" fill="#FEFEFE"/>
<path d="M181.871 91.0409L175.501 97.1423L165.836 87.0627L158.271 94.3357L167.935 104.415L161.59 110.517L136.647 84.5245L142.993 78.4231L152.389 88.2098L159.955 80.9369L150.558 71.1502L156.928 65.0487L181.871 91.0409Z" fill="#FEFEFE"/>
<path d="M189.707 43.7663C191.593 42.7779 193.405 42.2471 195.15 42.1799C196.889 42.1006 198.506 42.3691 200.007 42.9853C201.52 43.6077 202.862 44.468 204.033 45.5724C205.205 46.6645 206.157 47.9092 206.889 49.3064C207.847 51.1796 208.359 53.1992 208.427 55.3591C208.488 57.5068 207.987 59.5752 206.913 61.5582C205.852 63.5472 204.07 65.1885 201.569 66.4881L196.468 69.1484L201.422 78.6422L193.612 82.718L176.797 50.5023L189.707 43.7663ZM197.737 59.142C198.969 58.5074 199.671 57.641 199.836 56.5306C199.994 55.4079 199.836 54.3828 199.348 53.4554C198.823 52.467 198.054 51.7104 197.029 51.1857C196.016 50.6488 194.894 50.6976 193.661 51.3321L188.56 53.9924L192.636 61.8022L197.737 59.142Z" fill="#FEFEFE"/>
<path d="M232.483 66.2889C230.823 66.7649 229.121 66.9967 227.382 66.9967C225.637 66.9845 223.977 66.6794 222.403 66.0937C220.841 65.508 219.474 64.6049 218.303 63.3847C217.131 62.1522 216.253 60.5414 215.667 58.5523L208.907 35.0739L217.376 32.6333L224.136 56.0629C224.508 57.3503 225.289 58.174 226.479 58.5279C227.681 58.8696 228.895 58.8635 230.115 58.5035C231.348 58.1496 232.385 57.5029 233.215 56.5754C234.057 55.6358 234.295 54.5192 233.923 53.2318L227.162 29.8023L235.607 27.3617L242.367 50.8401C242.935 52.7925 243.057 54.5986 242.733 56.2582C242.404 57.9055 241.745 59.4004 240.756 60.7488C239.78 62.1033 238.566 63.2382 237.12 64.1656C235.686 65.0931 234.142 65.8008 232.483 66.2889Z" fill="#FEFEFE"/>
<path d="M261.662 24.406C263.566 24.2596 265.256 24.6012 266.739 25.431C268.234 26.2608 269.429 27.3835 270.326 28.799C271.236 30.2024 271.754 31.6911 271.888 33.2653C271.968 34.5039 271.779 35.7425 271.327 36.975C270.888 38.1953 270.088 39.2569 268.935 40.1477C270.937 40.9653 272.401 42.0758 273.328 43.4913C274.256 44.9069 274.774 46.359 274.89 47.8356C275.037 49.7575 274.744 51.6429 274.012 53.4977C273.279 55.3403 272.108 56.8901 270.497 58.1592C268.886 59.4161 266.818 60.1361 264.298 60.3313L247.775 61.6004L245.042 25.6751L261.662 24.406ZM261.296 37.4875C262.089 37.4265 262.645 37.1153 262.956 36.5601C263.279 36.011 263.42 35.4069 263.371 34.7541C263.322 34.1378 263.084 33.5826 262.663 33.0945C262.254 32.6063 261.711 32.3989 261.028 32.4599L254.316 32.9724L254.682 38L261.296 37.4875ZM263.664 52.0089C264.591 51.9479 265.256 51.5635 265.665 50.8619C266.068 50.148 266.238 49.3731 266.177 48.5433C266.11 47.7501 265.824 47.0302 265.323 46.3956C264.817 45.7489 264.103 45.456 263.175 45.517L255.317 46.1272L255.805 52.6191L263.664 52.0089Z" fill="#FEFEFE"/>
<path d="M281.624 23.9724L290.386 24.973L287.262 52.3075L302.296 54.0403L301.32 62.4848L277.524 59.7513L281.624 23.9724Z" fill="#FEFEFE"/>
<path d="M322.791 68.6944L302.851 62.959L305.023 55.3932L310.759 57.0528L316.396 37.5038L310.661 35.8442L312.882 28.132L332.822 33.8673L330.601 41.5796L324.865 39.9444L319.227 59.4934L324.963 61.1286L322.791 68.6944Z" fill="#FEFEFE"/>
<path d="M339.901 56.4093C338.839 58.4105 338.388 60.3081 338.534 62.0958C338.681 63.8713 339.242 65.4516 340.218 66.8305C341.207 68.2095 342.439 69.2833 343.904 70.0521C345.154 70.6989 346.478 71.0833 347.882 71.1992C349.297 71.309 350.688 71.1138 352.055 70.6134C353.434 70.107 354.673 69.2101 355.765 67.9288L363.648 72.0778C361.793 74.6282 359.554 76.5441 356.936 77.8132C354.313 79.0945 351.53 79.7046 348.59 79.6436C345.661 79.5765 342.811 78.8199 340.048 77.3739C337.766 76.1658 335.85 74.6282 334.288 72.7612C332.738 70.9063 331.591 68.8379 330.847 66.5621C330.096 64.2862 329.821 61.925 330.017 59.4844C330.212 57.0438 330.926 54.6643 332.164 52.3335C333.385 49.9905 334.947 48.0381 336.85 46.4761C338.766 44.9141 340.877 43.8037 343.171 43.1325C345.478 42.4492 347.845 42.2173 350.274 42.4248C352.696 42.62 355.045 43.3217 357.327 44.5237C360.06 45.9575 362.287 47.8672 364.014 50.259C365.753 52.6386 366.851 55.2622 367.309 58.1421C367.779 61.022 367.461 63.9141 366.357 66.8061L358.474 62.6572C358.895 61.0647 358.913 59.582 358.523 58.2153C358.144 56.8364 357.504 55.6039 356.595 54.53C355.698 53.444 354.642 52.5776 353.422 51.943C351.958 51.1803 350.377 50.7837 348.687 50.7471C347.009 50.6983 345.392 51.1254 343.83 52.0162C342.268 52.9131 340.957 54.3775 339.901 56.4093Z" fill="#FEFEFE"/>
<path d="M396.398 89.0156C397.258 88.1736 397.606 87.2218 397.447 86.1602C397.301 85.0863 396.739 84.0613 395.763 83.085C394.799 82.1088 393.823 81.5109 392.835 81.279C391.858 81.0533 391.01 81.2973 390.296 82.0112C389.82 82.4688 389.601 82.9874 389.637 83.5732C389.686 84.1467 389.869 84.7141 390.199 85.2816C390.522 85.8551 390.87 86.3676 391.248 86.8191C391.62 87.2584 391.895 87.6123 392.078 87.8686C392.859 88.8814 393.622 89.9858 394.372 91.1878C395.116 92.3897 395.714 93.6405 396.154 94.9463C396.593 96.2459 396.77 97.5882 396.691 98.9732C396.624 100.352 396.142 101.743 395.251 103.147C394.695 103.909 394.152 104.55 393.616 105.075C392.279 106.405 390.809 107.296 389.198 107.735C387.587 108.174 385.934 108.26 384.244 108.003C382.547 107.741 380.931 107.204 379.387 106.393C377.837 105.575 376.458 104.562 375.238 103.342C374.213 102.299 373.31 101.036 372.529 99.559C371.748 98.0946 371.223 96.496 370.967 94.7754C370.705 93.067 370.833 91.3342 371.357 89.577C371.894 87.8198 372.974 86.1358 374.603 84.525L380.851 90.8705C380.021 91.6881 379.57 92.5057 379.509 93.3355C379.46 94.1653 379.637 94.9279 380.046 95.6296C380.467 96.3252 380.906 96.9048 381.364 97.3624C382.371 98.3997 383.389 99.1257 384.415 99.5345C385.452 99.9372 386.33 99.7786 387.05 99.0464C387.52 98.5888 387.74 98.0824 387.709 97.5333C387.673 96.978 387.502 96.4167 387.197 95.8493C386.886 95.294 386.538 94.7754 386.147 94.2873C385.757 93.8114 385.464 93.4453 385.269 93.189C384.341 92.0664 383.451 90.8644 382.609 89.577C381.779 88.2774 381.15 86.9351 380.729 85.55C380.32 84.1528 380.272 82.6945 380.583 81.1814C380.888 79.656 381.73 78.1002 383.097 76.5199L383.048 76.5687C384.817 74.6162 386.812 73.4203 389.027 72.981C391.236 72.5295 393.451 72.7065 395.666 73.518C397.874 74.3173 399.888 75.6352 401.694 77.4717C402.829 78.6127 403.781 79.9062 404.549 81.3522C405.33 82.8044 405.831 84.3297 406.062 85.9405C406.307 87.5391 406.16 89.1377 405.623 90.7485C405.098 92.3592 404.098 93.8846 402.621 95.3367L396.398 89.0156Z" fill="#FEFEFE"/>
<path d="M406.337 111.437C404.415 112.621 403.066 114.012 402.285 115.61C401.504 117.221 401.187 118.863 401.333 120.54C401.48 122.231 401.98 123.774 402.847 125.178C403.591 126.38 404.543 127.386 405.702 128.204C406.855 129.034 408.149 129.577 409.583 129.839C411.01 130.095 412.524 129.949 414.122 129.4L418.808 136.99C415.91 138.259 413.006 138.772 410.095 138.527C407.179 138.296 404.482 137.405 401.992 135.843C399.503 134.293 397.435 132.188 395.793 129.522C394.457 127.337 393.597 125.043 393.206 122.639C392.816 120.248 392.871 117.88 393.377 115.537C393.896 113.206 394.866 111.059 396.281 109.07C397.697 107.068 399.515 105.378 401.748 103.993C403.994 102.614 406.337 101.736 408.777 101.357C411.218 100.967 413.597 101.065 415.928 101.65C418.253 102.236 420.407 103.237 422.396 104.652C424.379 106.068 426.038 107.868 427.374 110.046C428.997 112.682 429.949 115.464 430.23 118.393C430.523 121.334 430.132 124.165 429.058 126.886C427.985 129.601 426.233 131.92 423.811 133.842L419.125 126.276C420.309 125.104 421.09 123.823 421.468 122.444C421.84 121.077 421.914 119.692 421.688 118.295C421.456 116.91 420.98 115.623 420.248 114.439C419.382 113.036 418.234 111.901 416.807 111.022C415.373 110.131 413.756 109.674 411.95 109.655C410.156 109.643 408.289 110.235 406.337 111.437Z" fill="#FEFEFE"/>
<path d="M414.71 172.614L411.927 164.242L425.18 159.825L421.86 149.867L408.608 154.285L405.826 145.938L439.994 134.565L442.776 142.912L429.914 147.183L433.234 157.14L446.095 152.869L448.878 161.24L414.71 172.614Z" fill="#FEFEFE"/>
<path d="M433.626 173.219C436.261 172.988 438.751 173.256 441.094 174.025C443.437 174.787 445.511 175.953 447.317 177.515C449.123 179.089 450.588 180.962 451.71 183.128C452.845 185.288 453.528 187.649 453.76 190.206C453.968 192.756 453.693 195.209 452.931 197.552C452.18 199.895 451.039 201.976 449.514 203.8C447.982 205.636 446.127 207.131 443.949 208.291C441.765 209.462 439.361 210.158 436.725 210.389C434.138 210.597 431.679 210.304 429.355 209.511C427.024 208.73 424.968 207.558 423.18 205.996C421.386 204.447 419.922 202.586 418.787 200.407C417.664 198.223 416.993 195.856 416.786 193.305C416.554 190.749 416.81 188.308 417.542 185.984C418.286 183.653 419.421 181.566 420.935 179.711C422.448 177.869 424.284 176.38 426.45 175.245C428.61 174.104 431.002 173.427 433.626 173.219ZM434.358 181.908C432.112 182.085 430.27 182.713 428.842 183.787C427.408 184.861 426.389 186.167 425.791 187.716C425.187 189.26 424.949 190.853 425.083 192.5C425.23 194.141 425.73 195.697 426.597 197.161C427.475 198.626 428.702 199.773 430.282 200.603C431.874 201.432 433.778 201.756 435.993 201.579C438.25 201.384 440.093 200.737 441.509 199.651C442.936 198.577 443.974 197.259 444.608 195.697C445.243 194.147 445.493 192.555 445.365 190.914C445.218 189.266 444.706 187.723 443.827 186.276C442.949 184.843 441.716 183.702 440.142 182.86C438.58 182.03 436.652 181.713 434.358 181.908Z" fill="#FEFEFE"/>
<path d="M436.432 216.567C439.019 217.036 441.344 217.946 443.413 219.3C445.475 220.667 447.177 222.339 448.513 224.328C449.843 226.329 450.771 228.513 451.296 230.893C451.814 233.266 451.839 235.725 451.369 238.263C450.911 240.783 450.008 243.071 448.66 245.121C447.324 247.184 445.682 248.904 443.73 250.271C441.79 251.638 439.611 252.596 437.189 253.151C434.779 253.7 432.283 253.743 429.696 253.273C427.122 252.797 424.821 251.87 422.79 250.491C420.752 249.124 419.074 247.452 417.738 245.488C416.407 243.517 415.486 241.326 414.98 238.922C414.461 236.531 414.431 234.072 414.882 231.552C415.358 229.014 416.249 226.726 417.567 224.694C418.885 222.656 420.508 220.941 422.448 219.544C424.4 218.159 426.573 217.201 428.964 216.664C431.356 216.127 433.845 216.091 436.432 216.567ZM434.87 225.158C432.637 224.749 430.697 224.871 429.037 225.524C427.378 226.17 426.048 227.165 425.059 228.501C424.065 229.85 423.424 231.338 423.131 232.967C422.838 234.578 422.918 236.201 423.375 237.849C423.827 239.49 424.718 240.911 426.036 242.12C427.353 243.34 429.111 244.151 431.307 244.56C433.534 244.963 435.468 244.835 437.116 244.17C438.775 243.498 440.106 242.498 441.118 241.168C442.143 239.832 442.802 238.361 443.095 236.75C443.4 235.121 443.315 233.492 442.827 231.869C442.351 230.24 441.472 228.818 440.191 227.598C438.904 226.39 437.128 225.579 434.87 225.158Z" fill="#FEFEFE"/>
<path d="M443.852 265.816L440.386 273.918L415.053 263.107L409.122 277.018L401.312 273.699L410.709 251.685L443.852 265.816Z" fill="#FEFEFE"/>
<path d="M150.275 385.19L156.864 369.302L163.771 367.862L171.19 403.86L162.429 405.667L158.768 387.85L155.156 396.612L150.275 397.613L143.465 390.901L147.151 408.815L138.365 410.621L130.945 374.622L137.925 373.182L150.275 385.19Z" fill="#FEFEFE"/>
<path d="M173.058 384.888C172.686 382.203 172.826 379.659 173.473 377.249C174.138 374.827 175.218 372.648 176.719 370.708C178.232 368.774 180.05 367.182 182.186 365.925C184.334 364.674 186.713 363.868 189.337 363.509C191.936 363.167 194.444 363.325 196.854 363.972C199.276 364.607 201.454 365.656 203.395 367.121C205.347 368.585 206.97 370.403 208.276 372.563C209.575 374.711 210.411 377.127 210.79 379.812C211.131 382.447 210.96 384.973 210.277 387.377C209.594 389.769 208.502 391.929 207.007 393.845C205.524 395.767 203.7 397.359 201.54 398.628C199.392 399.898 197.013 400.703 194.413 401.045C191.79 401.405 189.276 401.264 186.872 400.63C184.48 399.983 182.296 398.94 180.331 397.506C178.379 396.06 176.768 394.26 175.499 392.112C174.23 389.964 173.412 387.56 173.058 384.888ZM181.918 383.692C182.223 385.974 182.955 387.817 184.114 389.232C185.267 390.636 186.64 391.612 188.239 392.161C189.849 392.698 191.485 392.856 193.144 392.625C194.816 392.399 196.372 391.795 197.806 390.819C199.252 389.842 200.356 388.537 201.125 386.889C201.888 385.23 202.126 383.271 201.833 381.007C201.521 378.713 200.771 376.877 199.587 375.492C198.398 374.095 197 373.118 195.39 372.563C193.791 371.996 192.168 371.825 190.508 372.051C188.83 372.282 187.275 372.88 185.847 373.857C184.431 374.821 183.339 376.12 182.576 377.761C181.808 379.391 181.588 381.367 181.918 383.692Z" fill="#FEFEFE"/>
<path d="M216.281 379.24C216.116 376.555 216.451 374.035 217.281 371.674C218.111 369.3 219.337 367.208 220.966 365.402C222.608 363.583 224.542 362.119 226.775 361.009C229.02 359.904 231.449 359.27 234.072 359.105C236.69 358.946 239.179 359.276 241.541 360.106C243.896 360.923 245.995 362.131 247.837 363.742C249.674 365.341 251.163 367.256 252.304 369.502C253.457 371.747 254.116 374.212 254.28 376.897C254.439 379.569 254.091 382.083 253.231 384.438C252.365 386.781 251.12 388.856 249.497 390.662C247.868 392.455 245.934 393.901 243.688 395.006C241.443 396.116 239.008 396.751 236.391 396.909C233.767 397.074 231.278 396.757 228.923 395.958C226.58 395.146 224.481 393.95 222.626 392.37C220.783 390.796 219.307 388.892 218.184 386.659C217.074 384.414 216.439 381.943 216.281 379.24ZM225.189 378.703C225.317 381.015 225.909 382.913 226.97 384.389C228.026 385.854 229.338 386.921 230.9 387.586C232.474 388.258 234.097 388.538 235.756 388.441C237.447 388.331 239.039 387.843 240.54 386.976C242.053 386.098 243.249 384.865 244.128 383.267C245.018 381.674 245.403 379.74 245.275 377.458C245.128 375.164 244.506 373.279 243.42 371.796C242.346 370.319 241.028 369.246 239.466 368.574C237.904 367.891 236.281 367.598 234.609 367.696C232.931 367.812 231.345 368.3 229.85 369.16C228.349 370.026 227.166 371.253 226.287 372.845C225.408 374.426 225.042 376.378 225.189 378.703Z" fill="#FEFEFE"/>
<path d="M279.387 358.541L288.271 358.566L288.173 395.321L281.144 395.296L268.624 377.334L268.575 395.247L259.667 395.223L259.765 358.468L266.696 358.492L279.338 376.919L279.387 358.541Z" fill="#FEFEFE"/>
<path d="M313.557 396.627L292.421 395.529L292.836 387.499L298.913 387.816L300.011 367.12L293.934 366.803L294.374 358.603L315.509 359.701L315.07 367.901L308.968 367.584L307.87 388.28L313.971 388.597L313.557 396.627Z" fill="#FEFEFE"/>
<path d="M335.619 361.771C338.645 362.082 341.238 362.882 343.404 364.163C345.564 365.45 347.309 367.043 348.627 368.947C349.957 370.838 350.878 372.912 351.385 375.17C351.903 377.415 352.044 379.685 351.8 381.979C351.568 384.273 350.97 386.47 349.994 388.569C349.03 390.655 347.7 392.486 345.991 394.06C344.295 395.64 342.263 396.818 339.89 397.599C337.51 398.392 334.813 398.636 331.787 398.331L317.241 396.794L321.073 360.234L335.619 361.771ZM332.69 389.813C334.74 390.027 336.503 389.734 337.986 388.935C339.463 388.123 340.628 387.019 341.476 385.616C342.318 384.2 342.824 382.687 342.989 381.076C343.166 379.484 342.989 377.897 342.452 376.317C341.915 374.725 341 373.364 339.719 372.241C338.45 371.106 336.79 370.429 334.74 370.216L329.078 369.605L327.028 389.203L332.69 389.813Z" fill="#FEFEFE"/>
<path d="M373.754 404.086L352.862 400.791L354.107 392.859L360.111 393.786L363.357 373.286L357.353 372.358L358.646 364.28L379.538 367.575L378.244 375.653L372.216 374.701L368.97 395.202L374.998 396.154L373.754 404.086Z" fill="#FEFEFE"/>
<path d="M405.599 410.553L396.813 408.723L399.742 394.787L389.247 392.59L386.318 406.526L377.532 404.671L385.074 368.697L393.86 370.552L391.029 384.121L401.523 386.318L404.354 372.748L413.14 374.579L405.599 410.553Z" fill="#FEFEFE"/>
<path d="M272.477 86.0198L278.384 159.641L303.146 90.0574L289.797 162.7L331.725 101.895L300.03 168.607L356.266 120.726L308.385 176.962L375.097 145.268L314.293 187.195L386.935 173.847L317.351 198.608L390.973 204.516L317.351 210.423L386.935 235.185L314.293 221.836L375.097 263.764L308.385 232.069L356.266 288.305L300.03 240.424L331.725 307.136L289.797 246.332L303.146 318.974L278.384 249.39L272.477 323.012L266.569 249.39L241.808 318.974L255.156 246.332L213.229 307.136L244.923 240.424L188.687 288.305L236.568 232.069L169.856 263.764L230.661 221.836L158.018 235.185L227.602 210.423L153.981 204.516L227.602 198.608L158.018 173.847L230.661 187.195L169.856 145.268L236.568 176.962L188.687 120.726L244.923 168.607L213.229 101.895L255.156 162.7L241.808 90.0574L266.569 159.641L272.477 86.0198Z" fill="#7171FF"/>
<path d="M215.023 159.551L272.876 167.928L330.622 159.551L333.022 239.251H210.674L215.023 159.551Z" fill="white"/>
<path d="M224.491 150.749C224.491 150.749 231.351 151.861 235.31 152.823C239.512 153.845 246.227 156.232 246.227 156.232L255.975 160.428L266.363 165.654L269.106 167.461L225.085 166.935L224.491 150.749Z" fill="white"/>
<path d="M320.562 150.749C320.562 150.749 313.702 151.861 309.743 152.823C305.54 153.845 298.825 156.232 298.825 156.232L289.078 160.428L278.689 165.654L275.947 167.461L319.967 166.935L320.562 150.749Z" fill="white"/>
<path d="M324.906 154.961C324.906 154.961 318.046 156.074 314.087 157.036C309.885 158.058 303.17 160.445 303.17 160.445L293.422 164.641L283.034 169.867L280.291 171.674L324.312 171.148L324.906 154.961Z" fill="white"/>
<path d="M219.463 154.961C219.463 154.961 226.323 156.074 230.282 157.036C234.484 158.058 241.199 160.445 241.199 160.445L250.947 164.641L261.335 169.867L264.078 171.674L220.057 171.148L219.463 154.961Z" fill="white"/>
<mask id="mask6_3_727" style="mask-type:luminance" maskUnits="userSpaceOnUse" x="209" y="149" width="127" height="95">
<path d="M334.582 150.251V243.154H210.371V150.251H334.582Z" fill="white" stroke="white"/>
</mask>
<g mask="url(#mask6_3_727)">
<path d="M320.614 150.315C320.692 150.307 320.759 150.323 320.818 150.358L320.876 150.4L320.878 150.402C320.94 150.457 320.984 150.551 320.984 150.652V154.586H325.591C325.748 154.586 325.894 154.709 325.894 154.918V159.113H330.675C330.832 159.113 330.977 159.237 330.978 159.445V164.915H334.281C334.437 164.915 334.582 165.037 334.582 165.247V238.783C334.386 238.79 334.133 238.798 333.824 238.809C333.011 238.837 331.814 238.882 330.279 238.946C327.209 239.075 322.785 239.284 317.367 239.604C306.537 240.245 291.731 241.331 275.828 243.112H269.126C253.236 241.318 238.43 240.232 227.596 239.595C222.176 239.276 217.749 239.069 214.677 238.942C213.141 238.879 211.944 238.835 211.13 238.808C210.821 238.797 210.567 238.788 210.371 238.782V165.247C210.371 165.039 210.517 164.915 210.674 164.915H214.003V159.42C214.003 159.209 214.146 159.088 214.303 159.088H219.087V154.918C219.087 154.708 219.231 154.586 219.387 154.586H223.969V150.652C223.969 150.578 223.994 150.505 224.033 150.449L224.077 150.4C224.137 150.347 224.2 150.321 224.256 150.315L224.31 150.316H224.313C245.357 152.723 266.785 165.337 269.066 166.693L269.185 166.763H275.771L275.891 166.691C278.144 165.337 299.572 152.723 320.615 150.316L320.614 150.315ZM269.398 239.717H275.532V167.428H269.398V239.717ZM319.793 151.093C299.648 153.683 279.437 165.336 276.401 167.16L276.159 167.306V239.485L276.91 239.05C281.835 236.192 300.945 225.727 319.919 223.347L320.356 223.291V151.021L319.793 151.093ZM214.605 233.071L215.097 233.08C219.52 233.159 241.664 233.887 261.819 238.637L262.106 237.681C252.66 234.217 234.997 228.548 219.392 227.918H219.393C219.231 227.908 219.087 227.764 219.087 227.585V159.778H214.605V233.071ZM325.868 227.585C325.868 227.74 325.758 227.871 325.621 227.908L325.561 227.918C309.955 228.548 292.32 234.217 282.848 237.68L283.134 238.637C303.265 233.914 325.409 233.184 329.859 233.08L330.348 233.069V159.778H325.868V227.585ZM219.689 227.254L220.163 227.278C233.189 227.951 247.563 232.019 257.367 235.318L257.741 234.393C249.133 230.3 236.655 225.355 224.279 223.941H224.28C224.12 223.922 223.994 223.783 223.994 223.605V155.252H219.689V227.254ZM320.959 223.605C320.959 223.75 320.853 223.884 320.726 223.929L320.67 223.941C308.296 225.356 295.819 230.3 287.212 234.393L287.587 235.318C297.417 231.992 311.763 227.951 324.791 227.278L325.266 227.254V155.252H320.959V223.605ZM268.796 167.306L268.553 167.16C265.516 165.336 245.28 153.657 225.16 151.093L224.597 151.021V223.291L225.034 223.347C244.01 225.727 263.118 236.192 268.045 239.05L268.796 239.485V167.306Z" fill="black" stroke="black"/>
</g>
<path d="M315.82 162.793C315.876 162.779 315.941 162.79 316.004 162.835C316.053 162.87 316.093 162.92 316.116 162.98L316.133 163.043C316.161 163.205 316.059 163.359 315.939 163.412L315.887 163.428L315.881 163.429C300.775 166.36 286.318 173.884 280.797 176.987L280.786 176.993L280.776 177C280.757 177.011 280.742 177.018 280.728 177.021C280.713 177.025 280.694 177.028 280.665 177.028C280.58 177.028 280.474 176.979 280.408 176.856C280.329 176.699 280.38 176.525 280.478 176.44L280.522 176.409L280.529 176.406L280.534 176.402C286.107 173.287 300.624 165.748 315.796 162.798L315.808 162.796L315.82 162.793Z" fill="black" stroke="black"/>
<path d="M315.791 170.058C315.925 170.033 316.064 170.111 316.116 170.243L316.133 170.302C316.161 170.463 316.06 170.617 315.938 170.671L315.885 170.688L315.881 170.689C300.775 173.619 286.318 181.143 280.797 184.247L280.786 184.252L280.776 184.259C280.757 184.271 280.742 184.276 280.728 184.28C280.713 184.284 280.694 184.287 280.665 184.287C280.58 184.287 280.474 184.238 280.408 184.116C280.318 183.936 280.397 183.734 280.522 183.668L280.529 183.665L280.534 183.662C286.106 180.547 300.621 173.009 315.791 170.058Z" fill="black" stroke="black"/>
<path d="M315.82 177.337C315.876 177.323 315.941 177.334 316.004 177.379C316.053 177.414 316.093 177.464 316.116 177.524L316.133 177.587C316.161 177.747 316.06 177.902 315.938 177.956L315.885 177.973L315.881 177.974C300.775 180.904 286.318 188.428 280.797 191.531L280.786 191.537L280.776 191.544C280.757 191.556 280.742 191.562 280.728 191.565C280.713 191.569 280.694 191.572 280.665 191.572C280.58 191.572 280.474 191.523 280.408 191.4C280.329 191.243 280.38 191.069 280.478 190.984L280.522 190.953L280.529 190.95L280.534 190.946C286.107 187.831 300.624 180.292 315.796 177.342L315.808 177.34L315.82 177.337Z" fill="black" stroke="black"/>
<path d="M315.791 184.602C315.926 184.577 316.065 184.655 316.116 184.786L316.133 184.845V184.846C316.161 185.007 316.06 185.162 315.938 185.216L315.885 185.232L315.881 185.233C300.775 188.162 286.318 195.688 280.797 198.791L280.786 198.797L280.776 198.803C280.757 198.815 280.742 198.82 280.728 198.824C280.713 198.828 280.694 198.831 280.665 198.831C280.601 198.831 280.525 198.804 280.463 198.737L280.407 198.656C280.33 198.502 280.379 198.328 280.477 198.243L280.522 198.213L280.529 198.209L280.534 198.206C286.106 195.091 300.621 187.553 315.791 184.602Z" fill="black" stroke="black"/>
<path d="M315.791 191.861C315.93 191.836 316.102 191.949 316.133 192.107C316.16 192.267 316.059 192.421 315.938 192.475L315.885 192.491L315.881 192.492C300.775 195.421 286.318 202.947 280.797 206.05L280.788 206.055L280.781 206.06C280.759 206.073 280.741 206.079 280.726 206.083C280.71 206.087 280.691 206.09 280.665 206.09C280.582 206.09 280.475 206.042 280.408 205.917C280.329 205.76 280.379 205.587 280.477 205.502L280.522 205.472L280.529 205.469L280.534 205.465C286.106 202.35 300.621 194.812 315.791 191.861Z" fill="black" stroke="black"/>
<path d="M315.82 199.14C315.914 199.117 316.057 199.175 316.115 199.322L316.133 199.39C316.161 199.551 316.06 199.705 315.938 199.759L315.885 199.776L315.881 199.777C301.719 202.522 288.127 209.309 281.935 212.704L280.797 213.334L280.788 213.339L280.781 213.344C280.759 213.357 280.741 213.365 280.726 213.369C280.71 213.373 280.691 213.375 280.665 213.375C280.582 213.375 280.475 213.327 280.408 213.202C280.33 213.045 280.379 212.872 280.477 212.788L280.522 212.756L280.529 212.753L280.534 212.75C286.107 209.634 300.624 202.095 315.796 199.145L315.808 199.143L315.82 199.14Z" fill="black" stroke="black"/>
<path d="M315.791 206.406C315.927 206.381 316.066 206.458 316.117 206.588L316.133 206.648C316.161 206.811 316.059 206.965 315.938 207.019L315.885 207.036L315.881 207.037C300.775 209.965 286.318 217.491 280.797 220.594L280.788 220.599L280.781 220.604C280.761 220.616 280.745 220.622 280.73 220.625C280.714 220.629 280.694 220.632 280.665 220.632C280.58 220.632 280.474 220.584 280.408 220.461C280.317 220.281 280.398 220.08 280.52 220.017L280.528 220.013L280.534 220.009C286.106 216.894 300.621 209.357 315.791 206.406Z" fill="black" stroke="black"/>
<path d="M315.82 213.684C315.914 213.661 316.058 213.72 316.115 213.865L316.133 213.932C316.161 214.095 316.059 214.249 315.938 214.303L315.885 214.32L315.881 214.321C301.719 217.066 288.127 223.853 281.935 227.248L280.797 227.879L280.788 227.884L280.781 227.888C280.761 227.9 280.745 227.907 280.73 227.911C280.714 227.915 280.694 227.918 280.665 227.918C280.58 227.918 280.474 227.869 280.408 227.746C280.318 227.566 280.398 227.365 280.52 227.302L280.528 227.298L280.534 227.294C286.107 224.178 300.624 216.64 315.796 213.689L315.808 213.687L315.82 213.684Z" fill="black" stroke="black"/>
<path d="M229.165 162.799V162.798C244.333 165.724 258.873 173.287 264.419 176.402L264.426 176.405L264.432 176.409C264.546 176.468 264.64 176.666 264.542 176.883C264.476 177.005 264.372 177.053 264.287 177.053C264.259 177.053 264.24 177.05 264.226 177.047C264.213 177.043 264.199 177.038 264.182 177.027L264.17 177.02L264.158 177.012L263.02 176.381C257.033 173.102 244.135 166.651 230.489 163.743L229.075 163.455L229.063 163.453L229.009 163.437C228.904 163.394 228.818 163.283 228.815 163.14L228.82 163.066L228.821 163.064C228.852 162.87 229.017 162.773 229.165 162.799Z" fill="black" stroke="black"/>
<path d="M229.163 170.058V170.057C244.323 172.981 258.856 180.538 264.41 183.656H264.411C264.561 183.745 264.633 183.941 264.542 184.142C264.476 184.264 264.372 184.312 264.287 184.312C264.259 184.312 264.24 184.31 264.226 184.306C264.213 184.303 264.199 184.297 264.182 184.287L264.17 184.279L264.159 184.272L263.02 183.64C257.033 180.359 244.134 173.91 230.489 171.003L229.075 170.714L229.063 170.713L229.009 170.697C228.903 170.654 228.818 170.542 228.815 170.399L228.82 170.326L228.821 170.323C228.853 170.127 229.019 170.031 229.163 170.058Z" fill="black" stroke="black"/>
<path d="M229.163 177.343V177.342C244.331 180.267 258.872 187.831 264.419 190.946L264.426 190.95L264.432 190.953C264.546 191.012 264.641 191.21 264.542 191.428C264.476 191.549 264.372 191.597 264.287 191.597C264.259 191.597 264.24 191.595 264.226 191.591C264.213 191.588 264.199 191.582 264.182 191.572L264.17 191.564L264.159 191.557L263.02 190.925C257.033 187.644 244.134 181.195 230.489 178.287L229.075 177.999L229.063 177.997L229.009 177.982C228.903 177.939 228.818 177.827 228.815 177.684L228.82 177.611L228.821 177.608C228.853 177.412 229.019 177.316 229.163 177.343Z" fill="black" stroke="black"/>
<path d="M229.163 184.602V184.601C244.323 187.525 258.856 195.082 264.41 198.2H264.411C264.561 198.289 264.633 198.485 264.542 198.686C264.476 198.808 264.372 198.856 264.287 198.856C264.259 198.856 264.24 198.854 264.226 198.85C264.213 198.847 264.199 198.841 264.182 198.831L264.17 198.823L264.159 198.816L263.02 198.185C257.033 194.904 244.135 188.455 230.489 185.547L229.075 185.259L229.065 185.257L229.01 185.241C228.903 185.197 228.818 185.085 228.815 184.943L228.82 184.87L228.821 184.867C228.853 184.67 229.018 184.575 229.163 184.602Z" fill="black" stroke="black"/>
<path d="M229.163 191.887V191.886C243.383 194.629 257.052 201.448 263.276 204.856L264.419 205.49L264.426 205.494L264.432 205.497C264.546 205.556 264.641 205.755 264.542 205.972C264.476 206.093 264.372 206.141 264.287 206.141C264.259 206.141 264.24 206.139 264.226 206.135C264.213 206.132 264.199 206.126 264.182 206.116L264.17 206.108L264.159 206.101L263.02 205.47C257.033 202.189 244.135 195.74 230.489 192.832L229.075 192.543L229.065 192.542L229.01 192.526C228.903 192.482 228.818 192.37 228.815 192.228L228.82 192.155L228.821 192.152C228.853 191.955 229.018 191.86 229.163 191.887Z" fill="black" stroke="black"/>
<path d="M229.163 199.146V199.146C244.323 202.069 258.856 209.626 264.41 212.744H264.411C264.561 212.832 264.633 213.027 264.543 213.229C264.477 213.352 264.372 213.4 264.287 213.4C264.259 213.4 264.24 213.398 264.226 213.395C264.213 213.391 264.199 213.386 264.182 213.375L264.17 213.367L264.159 213.36L263.02 212.729C257.033 209.448 244.135 202.999 230.489 200.091L229.075 199.803L229.065 199.801L229.01 199.785C228.903 199.741 228.818 199.629 228.815 199.487L228.82 199.414L228.821 199.411C228.853 199.214 229.018 199.12 229.163 199.146Z" fill="black" stroke="black"/>
<path d="M229.163 206.431V206.43C244.331 209.356 258.872 216.919 264.419 220.034L264.426 220.038L264.432 220.041C264.544 220.099 264.642 220.271 264.539 220.519C264.473 220.638 264.371 220.685 264.287 220.685C264.259 220.685 264.24 220.683 264.226 220.679C264.213 220.676 264.199 220.67 264.182 220.66L264.17 220.652L264.159 220.645L263.02 220.014C257.033 216.733 244.135 210.284 230.489 207.376L229.075 207.088L229.065 207.086L229.01 207.07C228.903 207.026 228.818 206.914 228.815 206.772L228.82 206.699L228.821 206.696C228.853 206.499 229.018 206.404 229.163 206.431Z" fill="black" stroke="black"/>
<path d="M229.163 213.691V213.69C243.383 216.43 257.052 223.251 263.276 226.659L264.419 227.293L264.426 227.297L264.434 227.301C264.546 227.359 264.641 227.556 264.541 227.776C264.475 227.897 264.371 227.944 264.287 227.944C264.262 227.944 264.243 227.942 264.228 227.938C264.213 227.934 264.196 227.928 264.177 227.916L264.167 227.91L264.159 227.904L263.02 227.273C257.033 223.991 244.135 217.54 230.489 214.634L229.075 214.347L229.065 214.345L229.01 214.329C228.903 214.286 228.818 214.173 228.815 214.031L228.82 213.958L228.821 213.955C228.853 213.759 229.018 213.664 229.163 213.691Z" fill="black" stroke="black"/>
<mask id="mask7_3_727" style="mask-type:luminance" maskUnits="userSpaceOnUse" x="249" y="156" width="82" height="54">
<path d="M249.321 156.598H330.522V209.289H249.321V156.598Z" fill="white"/>
</mask>
<g mask="url(#mask7_3_727)">
<mask id="mask8_3_727" style="mask-type:luminance" maskUnits="userSpaceOnUse" x="238" y="121" width="102" height="90">
<path d="M238.24 123.444L337.497 121.4L339.107 208.032L239.85 210.076L238.24 123.444Z" fill="white"/>
</mask>
<g mask="url(#mask8_3_727)">
<mask id="mask9_3_727" style="mask-type:luminance" maskUnits="userSpaceOnUse" x="216" y="121" width="124" height="120">
<path d="M216.095 123.9L337.594 121.398L339.769 238.468L218.27 240.972L216.095 123.9Z" fill="white"/>
</mask>
<g mask="url(#mask9_3_727)">
<mask id="mask10_3_727" style="mask-type:luminance" maskUnits="userSpaceOnUse" x="216" y="121" width="124" height="120">
<path d="M216.095 123.9L337.594 121.398L339.769 238.468L218.27 240.972L216.095 123.9Z" fill="white"/>
</mask>
<g mask="url(#mask10_3_727)">
<path fill-rule="evenodd" clip-rule="evenodd" d="M249.792 191.282L249.347 189.966C249.347 189.966 253.487 186.79 253.462 185.467C253.437 184.143 258.269 173.006 259.936 172.309C261.603 171.612 272.146 162.786 273.199 162.984C274.253 163.184 288.647 158.252 290.095 157.117C291.544 155.985 298.107 158.939 299.827 161.112C301.547 163.285 318.994 175.729 319.245 177.93C319.495 180.134 328.782 182.811 329.828 182.57C330.873 182.327 330.242 204.857 330.242 204.857C330.242 204.857 321.843 204.81 313.473 206.306C311.382 206.681 308.32 207.158 304.831 207.634C301.343 208.108 294.149 201.585 290.352 201.953C286.553 202.322 290.318 196.69 278.888 196.254C275.869 196.075 283.724 206.836 279.088 208.78C276.769 209.642 276.316 207.83 275.723 206.701C274.649 207.789 275.367 209.023 272.583 208.914C269.904 208.805 264.193 198.05 265.382 194.272C264.107 193.415 261.063 204.737 256.438 204.391C252.858 203.802 256.35 194.017 251.624 193.893C250.151 193.703 249.79 191.282 249.79 191.282H249.792Z" fill="#C57E4F"/>
</g>
</g>
</g>
</g>
<mask id="mask11_3_727" style="mask-type:luminance" maskUnits="userSpaceOnUse" x="240" y="195" width="16" height="14">
<path d="M240.052 195.629H255.254V208.899H240.052V195.629Z" fill="white"/>
</mask>
<g mask="url(#mask11_3_727)">
<mask id="mask12_3_727" style="mask-type:luminance" maskUnits="userSpaceOnUse" x="238" y="121" width="102" height="90">
<path d="M238.24 123.444L337.497 121.4L339.107 208.032L239.85 210.076L238.24 123.444Z" fill="white"/>
</mask>
<g mask="url(#mask12_3_727)">
<mask id="mask13_3_727" style="mask-type:luminance" maskUnits="userSpaceOnUse" x="216" y="121" width="124" height="120">
<path d="M216.095 123.9L337.594 121.398L339.769 238.468L218.27 240.972L216.095 123.9Z" fill="white"/>
</mask>
<g mask="url(#mask13_3_727)">
<mask id="mask14_3_727" style="mask-type:luminance" maskUnits="userSpaceOnUse" x="216" y="121" width="124" height="120">
<path d="M216.095 123.9L337.594 121.398L339.769 238.468L218.27 240.972L216.095 123.9Z" fill="white"/>
</mask>
<g mask="url(#mask14_3_727)">
<mask id="mask15_3_727" style="mask-type:luminance" maskUnits="userSpaceOnUse" x="240" y="195" width="15" height="14">
<path d="M240.062 208.806L248.709 199.578C250.041 198.832 251.074 197.935 251.799 196.423L252.626 195.743L254.984 198.344L253.905 199.402L251.643 199.295L251.766 198.631L250.416 199.841L251.205 200.306L249.421 204.049L240.062 208.806Z" fill="white"/>
</mask>
<g mask="url(#mask15_3_727)">
<path d="M239.819 195.748L240.068 209.113L255.226 208.8L254.978 195.437L239.819 195.748Z" fill="url(#paint0_linear_3_727)"/>
</g>
</g>
</g>
</g>
</g>
<mask id="mask16_3_727" style="mask-type:luminance" maskUnits="userSpaceOnUse" x="252" y="122" width="85" height="76">
<path d="M252.287 122.641H336.083V197.97H252.287V122.641Z" fill="white"/>
</mask>
<g mask="url(#mask16_3_727)">
<mask id="mask17_3_727" style="mask-type:luminance" maskUnits="userSpaceOnUse" x="238" y="121" width="102" height="90">
<path d="M238.24 123.444L337.497 121.4L339.107 208.032L239.85 210.076L238.24 123.444Z" fill="white"/>
</mask>
<g mask="url(#mask17_3_727)">
<mask id="mask18_3_727" style="mask-type:luminance" maskUnits="userSpaceOnUse" x="216" y="121" width="124" height="120">
<path d="M216.095 123.9L337.594 121.398L339.769 238.468L218.27 240.972L216.095 123.9Z" fill="white"/>
</mask>
<g mask="url(#mask18_3_727)">
<mask id="mask19_3_727" style="mask-type:luminance" maskUnits="userSpaceOnUse" x="216" y="121" width="124" height="120">
<path d="M216.095 123.9L337.594 121.398L339.769 238.468L218.27 240.972L216.095 123.9Z" fill="white"/>
</mask>
<g mask="url(#mask19_3_727)">
<path fill-rule="evenodd" clip-rule="evenodd" d="M256.937 189.454L254.082 191.619C251.495 193.582 252.857 196.197 253.442 197.095C254.028 197.995 256.541 197.954 257.597 197.01L289.43 168.569L335.4 125.789C337.306 124.014 334.192 121.837 332.094 123.671L256.939 189.451L256.937 189.454Z" fill="#454239"/>
</g>
</g>
</g>
</g>
<mask id="mask20_3_727" style="mask-type:luminance" maskUnits="userSpaceOnUse" x="252" y="176" width="23" height="22">
<path d="M252.287 176.894H274.905V197.97H252.287V176.894Z" fill="white"/>
</mask>
<g mask="url(#mask20_3_727)">
<mask id="mask21_3_727" style="mask-type:luminance" maskUnits="userSpaceOnUse" x="238" y="121" width="102" height="90">
<path d="M238.24 123.444L337.497 121.4L339.107 208.032L239.85 210.076L238.24 123.444Z" fill="white"/>
</mask>
<g mask="url(#mask21_3_727)">
<mask id="mask22_3_727" style="mask-type:luminance" maskUnits="userSpaceOnUse" x="216" y="121" width="124" height="120">
<path d="M216.095 123.9L337.594 121.398L339.769 238.468L218.27 240.972L216.095 123.9Z" fill="white"/>
</mask>
<g mask="url(#mask22_3_727)">
<mask id="mask23_3_727" style="mask-type:luminance" maskUnits="userSpaceOnUse" x="216" y="121" width="124" height="120">
<path d="M216.095 123.9L337.594 121.398L339.769 238.468L218.27 240.972L216.095 123.9Z" fill="white"/>
</mask>
<g mask="url(#mask23_3_727)">
<mask id="mask24_3_727" style="mask-type:luminance" maskUnits="userSpaceOnUse" x="252" y="177" width="23" height="21">
<path d="M256.86 189.489L254.005 191.654C251.418 193.618 252.778 196.232 253.365 197.132C253.95 198.03 256.462 197.986 257.52 197.045L274.368 182.082C275.449 181.122 271.656 176.481 270.699 177.324L256.86 189.489Z" fill="white"/>
</mask>
<g mask="url(#mask24_3_727)">
<path d="M251.019 176.49L251.427 198.525L275.849 198.022L275.439 175.987L251.019 176.49Z" fill="url(#paint1_linear_3_727)"/>
</g>
</g>
</g>
</g>
</g>
<mask id="mask25_3_727" style="mask-type:luminance" maskUnits="userSpaceOnUse" x="249" y="156" width="82" height="50">
<path d="M249.321 156.598H330.892V205.386H249.321V156.598Z" fill="white"/>
</mask>
<g mask="url(#mask25_3_727)">
<mask id="mask26_3_727" style="mask-type:luminance" maskUnits="userSpaceOnUse" x="238" y="121" width="102" height="90">
<path d="M238.24 123.444L337.497 121.4L339.107 208.032L239.85 210.076L238.24 123.444Z" fill="white"/>
</mask>
<g mask="url(#mask26_3_727)">
<mask id="mask27_3_727" style="mask-type:luminance" maskUnits="userSpaceOnUse" x="216" y="121" width="124" height="120">
<path d="M216.095 123.9L337.594 121.398L339.769 238.468L218.27 240.972L216.095 123.9Z" fill="white"/>
</mask>
<g mask="url(#mask27_3_727)">
<mask id="mask28_3_727" style="mask-type:luminance" maskUnits="userSpaceOnUse" x="216" y="121" width="124" height="120">
<path d="M216.095 123.9L337.594 121.398L339.769 238.468L218.27 240.972L216.095 123.9Z" fill="white"/>
</mask>
<g mask="url(#mask28_3_727)">
<path fill-rule="evenodd" clip-rule="evenodd" d="M250.027 191.382L249.582 190.068C249.582 190.068 253.721 186.892 253.697 185.567C253.673 184.244 258.505 173.106 260.171 172.41C261.838 171.713 272.38 162.887 273.435 163.086C274.488 163.285 288.883 158.352 290.331 157.22C291.778 156.085 298.342 159.042 300.063 161.213C301.782 163.385 319.229 175.829 319.479 178.031C319.73 180.234 329.018 182.913 330.062 182.671C331.108 182.428 330.413 204.397 330.413 204.397C330.413 204.397 322.054 203.586 313.684 205.083C305.314 206.58 292.792 199.332 291.945 198.908C291.097 198.484 285.55 193.743 280.53 194.729C275.51 195.715 266.893 195.231 265.618 194.374C264.342 193.517 259.277 192.076 259.029 190.094C258.783 188.112 259.335 183.907 262.261 183.184C265.186 182.462 276.087 181.574 279.881 182.379C283.676 183.184 289.758 182.838 291.609 180.814C293.46 178.789 291.376 168.235 292.182 166.453C292.989 164.671 284.577 163.96 282.092 165.777C279.606 167.595 263.981 174.097 264.451 176.737C264.92 179.377 256.893 185.061 256.309 187.501C255.724 189.942 253.837 193.07 252.364 192.881C250.891 192.691 250.027 191.384 250.027 191.384V191.382Z" fill="#FFB17C"/>
</g>
</g>
</g>
</g>
<mask id="mask29_3_727" style="mask-type:luminance" maskUnits="userSpaceOnUse" x="281" y="122" width="56" height="47">
<path d="M281.579 122.641H336.454V168.697H281.579V122.641Z" fill="white"/>
</mask>
<g mask="url(#mask29_3_727)">
<mask id="mask30_3_727" style="mask-type:luminance" maskUnits="userSpaceOnUse" x="238" y="121" width="102" height="90">
<path d="M238.24 123.444L337.497 121.4L339.107 208.032L239.85 210.076L238.24 123.444Z" fill="white"/>
</mask>
<g mask="url(#mask30_3_727)">
<mask id="mask31_3_727" style="mask-type:luminance" maskUnits="userSpaceOnUse" x="216" y="121" width="124" height="120">
<path d="M216.095 123.9L337.594 121.398L339.769 238.468L218.27 240.972L216.095 123.9Z" fill="white"/>
</mask>
<g mask="url(#mask31_3_727)">
<mask id="mask32_3_727" style="mask-type:luminance" maskUnits="userSpaceOnUse" x="216" y="121" width="124" height="120">
<path d="M216.095 123.9L337.594 121.398L339.769 238.468L218.27 240.972L216.095 123.9Z" fill="white"/>
</mask>
<g mask="url(#mask32_3_727)">
<path fill-rule="evenodd" clip-rule="evenodd" d="M289.791 168.311L335.76 125.53C337.666 123.757 334.554 121.581 332.454 123.412L281.827 167.578L289.791 168.31V168.311Z" fill="#454239"/>
</g>
</g>
</g>
</g>
<path d="M260.913 185.298L260.335 189.46C260.231 190.215 263.15 191.308 264.313 189.86C265.49 188.585 265.045 186.777 265.045 186.777C265.045 186.777 264.462 184.948 263.001 185.093L260.913 185.298Z" fill="#EFEFEF"/>
<path d="M958.126 420.396C955.126 415.846 952.801 410.596 951.151 404.646C949.551 398.646 948.751 392.196 948.751 385.296C948.751 378.396 949.551 371.946 951.151 365.946C952.801 359.896 955.126 354.646 958.126 350.196H969.301C966.151 355.846 963.851 361.546 962.401 367.296C960.951 372.996 960.226 378.996 960.226 385.296C960.226 391.596 960.951 397.621 962.401 403.371C963.851 409.071 966.151 414.746 969.301 420.396H958.126ZM976.307 405.846V353.346H1015.98V363.096H988.382V396.096H1016.96V405.846H976.307ZM987.482 383.946V374.496H1012.76V383.946H987.482ZM1043.87 406.746C1039.67 406.746 1035.65 406.196 1031.8 405.096C1027.95 403.946 1024.85 402.471 1022.5 400.671L1026.62 391.521C1028.87 393.121 1031.52 394.446 1034.57 395.496C1037.67 396.496 1040.8 396.996 1043.95 396.996C1046.35 396.996 1048.27 396.771 1049.72 396.321C1051.22 395.821 1052.32 395.146 1053.02 394.296C1053.72 393.446 1054.07 392.471 1054.07 391.371C1054.07 389.971 1053.52 388.871 1052.42 388.071C1051.32 387.221 1049.87 386.546 1048.07 386.046C1046.27 385.496 1044.27 384.996 1042.07 384.546C1039.92 384.046 1037.75 383.446 1035.55 382.746C1033.4 382.046 1031.42 381.146 1029.62 380.046C1027.82 378.946 1026.35 377.496 1025.2 375.696C1024.1 373.896 1023.55 371.596 1023.55 368.796C1023.55 365.796 1024.35 363.071 1025.95 360.621C1027.6 358.121 1030.05 356.146 1033.3 354.696C1036.6 353.196 1040.72 352.446 1045.67 352.446C1048.97 352.446 1052.22 352.846 1055.42 353.646C1058.62 354.396 1061.45 355.546 1063.9 357.096L1060.15 366.321C1057.7 364.921 1055.25 363.896 1052.8 363.246C1050.35 362.546 1047.95 362.196 1045.6 362.196C1043.25 362.196 1041.32 362.471 1039.82 363.021C1038.32 363.571 1037.25 364.296 1036.6 365.196C1035.95 366.046 1035.62 367.046 1035.62 368.196C1035.62 369.546 1036.17 370.646 1037.27 371.496C1038.37 372.296 1039.82 372.946 1041.62 373.446C1043.42 373.946 1045.4 374.446 1047.55 374.946C1049.75 375.446 1051.92 376.021 1054.07 376.671C1056.27 377.321 1058.27 378.196 1060.07 379.296C1061.87 380.396 1063.32 381.846 1064.42 383.646C1065.57 385.446 1066.15 387.721 1066.15 390.471C1066.15 393.421 1065.32 396.121 1063.67 398.571C1062.02 401.021 1059.55 402.996 1056.25 404.496C1053 405.996 1048.87 406.746 1043.87 406.746ZM1084.59 405.846V363.246H1067.79V353.346H1113.54V363.246H1096.74V405.846H1084.59ZM1120.08 405.846V353.346H1143.93C1149.63 353.346 1154.66 354.446 1159.01 356.646C1163.36 358.796 1166.76 361.821 1169.21 365.721C1171.66 369.621 1172.88 374.246 1172.88 379.596C1172.88 384.896 1171.66 389.521 1169.21 393.471C1166.76 397.371 1163.36 400.421 1159.01 402.621C1154.66 404.771 1149.63 405.846 1143.93 405.846H1120.08ZM1132.23 395.871H1143.33C1146.83 395.871 1149.86 395.221 1152.41 393.921C1155.01 392.571 1157.01 390.671 1158.41 388.221C1159.86 385.771 1160.58 382.896 1160.58 379.596C1160.58 376.246 1159.86 373.371 1158.41 370.971C1157.01 368.521 1155.01 366.646 1152.41 365.346C1149.86 363.996 1146.83 363.321 1143.33 363.321H1132.23V395.871ZM1184.18 406.446C1182.18 406.446 1180.45 405.771 1179 404.421C1177.6 403.021 1176.9 401.246 1176.9 399.096C1176.9 396.946 1177.6 395.221 1179 393.921C1180.45 392.571 1182.18 391.896 1184.18 391.896C1186.23 391.896 1187.95 392.571 1189.35 393.921C1190.75 395.221 1191.45 396.946 1191.45 399.096C1191.45 401.246 1190.75 403.021 1189.35 404.421C1187.95 405.771 1186.23 406.446 1184.18 406.446ZM1219.12 389.421V380.046H1240.35V389.421H1219.12ZM1276.42 405.846V357.846L1281.67 363.096H1265.92V353.346H1288.57V405.846H1276.42ZM1312.84 406.746C1310.09 406.746 1307.44 406.446 1304.89 405.846C1302.34 405.246 1300.14 404.346 1298.29 403.146L1302.79 394.221C1304.24 395.221 1305.79 395.921 1307.44 396.321C1309.09 396.671 1310.82 396.846 1312.62 396.846C1317.12 396.846 1320.69 395.471 1323.34 392.721C1326.04 389.971 1327.39 385.896 1327.39 380.496C1327.39 379.596 1327.37 378.596 1327.32 377.496C1327.27 376.396 1327.14 375.296 1326.94 374.196L1330.24 377.346C1329.39 379.296 1328.19 380.946 1326.64 382.296C1325.09 383.596 1323.29 384.596 1321.24 385.296C1319.19 385.946 1316.89 386.271 1314.34 386.271C1310.99 386.271 1307.94 385.596 1305.19 384.246C1302.49 382.896 1300.32 380.996 1298.67 378.546C1297.07 376.096 1296.27 373.221 1296.27 369.921C1296.27 366.321 1297.14 363.221 1298.89 360.621C1300.69 358.021 1303.09 356.021 1306.09 354.621C1309.14 353.171 1312.49 352.446 1316.14 352.446C1320.99 352.446 1325.17 353.446 1328.67 355.446C1332.17 357.446 1334.87 360.371 1336.77 364.221C1338.67 368.021 1339.62 372.771 1339.62 378.471C1339.62 384.521 1338.47 389.646 1336.17 393.846C1333.92 398.046 1330.79 401.246 1326.79 403.446C1322.79 405.646 1318.14 406.746 1312.84 406.746ZM1317.04 377.196C1318.79 377.196 1320.34 376.871 1321.69 376.221C1323.09 375.521 1324.17 374.571 1324.92 373.371C1325.67 372.171 1326.04 370.821 1326.04 369.321C1326.04 367.821 1325.67 366.496 1324.92 365.346C1324.22 364.146 1323.19 363.221 1321.84 362.571C1320.49 361.871 1318.84 361.521 1316.89 361.521C1315.14 361.521 1313.62 361.846 1312.32 362.496C1311.02 363.096 1309.99 363.996 1309.24 365.196C1308.49 366.346 1308.12 367.721 1308.12 369.321C1308.12 371.721 1308.92 373.646 1310.52 375.096C1312.17 376.496 1314.34 377.196 1317.04 377.196ZM1360.59 406.746C1357.84 406.746 1355.19 406.446 1352.64 405.846C1350.09 405.246 1347.89 404.346 1346.04 403.146L1350.54 394.221C1351.99 395.221 1353.54 395.921 1355.19 396.321C1356.84 396.671 1358.57 396.846 1360.37 396.846C1364.87 396.846 1368.44 395.471 1371.09 392.721C1373.79 389.971 1375.14 385.896 1375.14 380.496C1375.14 379.596 1375.12 378.596 1375.07 377.496C1375.02 376.396 1374.89 375.296 1374.69 374.196L1377.99 377.346C1377.14 379.296 1375.94 380.946 1374.39 382.296C1372.84 383.596 1371.04 384.596 1368.99 385.296C1366.94 385.946 1364.64 386.271 1362.09 386.271C1358.74 386.271 1355.69 385.596 1352.94 384.246C1350.24 382.896 1348.07 380.996 1346.42 378.546C1344.82 376.096 1344.02 373.221 1344.02 369.921C1344.02 366.321 1344.89 363.221 1346.64 360.621C1348.44 358.021 1350.84 356.021 1353.84 354.621C1356.89 353.171 1360.24 352.446 1363.89 352.446C1368.74 352.446 1372.92 353.446 1376.42 355.446C1379.92 357.446 1382.62 360.371 1384.52 364.221C1386.42 368.021 1387.37 372.771 1387.37 378.471C1387.37 384.521 1386.22 389.646 1383.92 393.846C1381.67 398.046 1378.54 401.246 1374.54 403.446C1370.54 405.646 1365.89 406.746 1360.59 406.746ZM1364.79 377.196C1366.54 377.196 1368.09 376.871 1369.44 376.221C1370.84 375.521 1371.92 374.571 1372.67 373.371C1373.42 372.171 1373.79 370.821 1373.79 369.321C1373.79 367.821 1373.42 366.496 1372.67 365.346C1371.97 364.146 1370.94 363.221 1369.59 362.571C1368.24 361.871 1366.59 361.521 1364.64 361.521C1362.89 361.521 1361.37 361.846 1360.07 362.496C1358.77 363.096 1357.74 363.996 1356.99 365.196C1356.24 366.346 1355.87 367.721 1355.87 369.321C1355.87 371.721 1356.67 373.646 1358.27 375.096C1359.92 376.496 1362.09 377.196 1364.79 377.196ZM1392.6 394.821V386.646L1417.35 353.346H1430.1L1405.87 386.646L1399.95 384.921H1441.27V394.821H1392.6ZM1420.87 405.846V394.821L1421.25 384.921V375.096H1432.72V405.846H1420.87ZM1442.73 420.396C1445.98 414.746 1448.31 409.071 1449.71 403.371C1451.16 397.621 1451.88 391.596 1451.88 385.296C1451.88 378.996 1451.16 372.996 1449.71 367.296C1448.31 361.546 1445.98 355.846 1442.73 350.196H1453.91C1457.01 354.646 1459.36 359.896 1460.96 365.946C1462.56 371.946 1463.36 378.396 1463.36 385.296C1463.36 392.196 1462.56 398.646 1460.96 404.646C1459.36 410.596 1457.01 415.846 1453.91 420.396H1442.73Z" fill="#212EF5"/>
<path d="M552.491 164.56V98.0604H584.981C593.341 98.0604 599.611 99.6438 603.791 102.81C608.034 105.977 610.156 110.157 610.156 115.35C610.156 118.834 609.301 121.874 607.591 124.47C605.881 127.004 603.538 128.967 600.561 130.36C597.584 131.754 594.164 132.45 590.301 132.45L592.106 128.555C596.286 128.555 599.991 129.252 603.221 130.645C606.451 131.975 608.953 133.97 610.726 136.63C612.563 139.29 613.481 142.552 613.481 146.415C613.481 152.115 611.233 156.58 606.736 159.81C602.239 162.977 595.621 164.56 586.881 164.56H552.491ZM567.786 152.97H585.741C589.731 152.97 592.739 152.337 594.766 151.07C596.856 149.74 597.901 147.65 597.901 144.8C597.901 142.014 596.856 139.955 594.766 138.625C592.739 137.232 589.731 136.535 585.741 136.535H566.646V125.325H583.081C586.818 125.325 589.668 124.692 591.631 123.425C593.658 122.095 594.671 120.1 594.671 117.44C594.671 114.844 593.658 112.912 591.631 111.645C589.668 110.315 586.818 109.65 583.081 109.65H567.786V152.97ZM616.393 164.56L646.033 98.0604H661.233L690.968 164.56H674.818L650.498 105.85H656.578L632.163 164.56H616.393ZM631.213 150.31L635.298 138.625H669.498L673.678 150.31H631.213ZM697.867 164.56V98.0604H713.257V152.02H746.602V164.56H697.867ZM783.911 165.7C774.474 165.7 767.096 163.072 761.776 157.815C756.456 152.559 753.796 145.054 753.796 135.3V98.0604H769.186V134.73C769.186 141.064 770.484 145.624 773.081 148.41C775.678 151.197 779.319 152.59 784.006 152.59C788.693 152.59 792.334 151.197 794.931 148.41C797.528 145.624 798.826 141.064 798.826 134.73V98.0604H814.026V135.3C814.026 145.054 811.366 152.559 806.046 157.815C800.726 163.072 793.348 165.7 783.911 165.7ZM829.234 164.56V98.0604H859.444C866.664 98.0604 873.029 99.4538 878.539 102.24C884.049 104.964 888.356 108.795 891.459 113.735C894.563 118.675 896.114 124.534 896.114 131.31C896.114 138.024 894.563 143.882 891.459 148.885C888.356 153.825 884.049 157.689 878.539 160.475C873.029 163.199 866.664 164.56 859.444 164.56H829.234ZM844.624 151.925H858.684C863.118 151.925 866.949 151.102 870.179 149.455C873.473 147.745 876.006 145.339 877.779 142.235C879.616 139.132 880.534 135.49 880.534 131.31C880.534 127.067 879.616 123.425 877.779 120.385C876.006 117.282 873.473 114.907 870.179 113.26C866.949 111.55 863.118 110.695 858.684 110.695H844.624V151.925ZM907.721 164.56V98.0604H923.111V164.56H907.721ZM984.493 164.56V98.0604H999.883V164.56H984.493ZM938.893 164.56V98.0604H954.283V164.56H938.893ZM953.143 137.295V124.28H985.633V137.295H953.143ZM1042.52 164.56V98.0604H1071.31C1077.26 98.0604 1082.39 99.0421 1086.7 101.005C1091 102.905 1094.33 105.66 1096.67 109.27C1099.01 112.88 1100.19 117.187 1100.19 122.19C1100.19 127.13 1099.01 131.405 1096.67 135.015C1094.33 138.625 1091 141.412 1086.7 143.375C1082.39 145.275 1077.26 146.225 1071.31 146.225H1051.07L1057.91 139.29V164.56H1042.52ZM1057.91 141L1051.07 133.685H1070.45C1075.2 133.685 1078.75 132.672 1081.09 130.645C1083.43 128.619 1084.61 125.8 1084.61 122.19C1084.61 118.517 1083.43 115.667 1081.09 113.64C1078.75 111.614 1075.2 110.6 1070.45 110.6H1051.07L1057.91 103.285V141ZM1140.44 165.7C1131 165.7 1123.62 163.072 1118.3 157.815C1112.98 152.559 1110.32 145.054 1110.32 135.3V98.0604H1125.71V134.73C1125.71 141.064 1127.01 145.624 1129.61 148.41C1132.21 151.197 1135.85 152.59 1140.53 152.59C1145.22 152.59 1148.86 151.197 1151.46 148.41C1154.06 145.624 1155.35 141.064 1155.35 134.73V98.0604H1170.55V135.3C1170.55 145.054 1167.89 152.559 1162.57 157.815C1157.25 163.072 1149.88 165.7 1140.44 165.7ZM1185.76 164.56V98.0604H1218.25C1226.61 98.0604 1232.88 99.6438 1237.06 102.81C1241.31 105.977 1243.43 110.157 1243.43 115.35C1243.43 118.834 1242.57 121.874 1240.86 124.47C1239.15 127.004 1236.81 128.967 1233.83 130.36C1230.86 131.754 1227.44 132.45 1223.57 132.45L1225.38 128.555C1229.56 128.555 1233.26 129.252 1236.49 130.645C1239.72 131.975 1242.22 133.97 1244 136.63C1245.83 139.29 1246.75 142.552 1246.75 146.415C1246.75 152.115 1244.5 156.58 1240.01 159.81C1235.51 162.977 1228.89 164.56 1220.15 164.56H1185.76ZM1201.06 152.97H1219.01C1223 152.97 1226.01 152.337 1228.04 151.07C1230.13 149.74 1231.17 147.65 1231.17 144.8C1231.17 142.014 1230.13 139.955 1228.04 138.625C1226.01 137.232 1223 136.535 1219.01 136.535H1199.92V125.325H1216.35C1220.09 125.325 1222.94 124.692 1224.9 123.425C1226.93 122.095 1227.94 120.1 1227.94 117.44C1227.94 114.844 1226.93 112.912 1224.9 111.645C1222.94 110.315 1220.09 109.65 1216.35 109.65H1201.06V152.97ZM1258.4 164.56V98.0604H1273.79V152.02H1307.14V164.56H1258.4ZM1315.74 164.56V98.0604H1331.13V164.56H1315.74ZM1378.74 165.7C1373.61 165.7 1368.82 164.877 1364.39 163.23C1360.02 161.52 1356.22 159.114 1352.99 156.01C1349.76 152.907 1347.23 149.265 1345.39 145.085C1343.62 140.905 1342.73 136.314 1342.73 131.31C1342.73 126.307 1343.62 121.715 1345.39 117.535C1347.23 113.355 1349.76 109.714 1352.99 106.61C1356.28 103.507 1360.12 101.132 1364.49 99.4854C1368.86 97.7754 1373.64 96.9204 1378.83 96.9204C1384.59 96.9204 1389.79 97.9338 1394.41 99.9604C1399.1 101.924 1403.02 104.837 1406.19 108.7L1396.31 117.82C1394.03 115.224 1391.5 113.292 1388.71 112.025C1385.92 110.695 1382.88 110.03 1379.59 110.03C1376.49 110.03 1373.64 110.537 1371.04 111.55C1368.44 112.564 1366.2 114.02 1364.3 115.92C1362.4 117.82 1360.91 120.069 1359.83 122.665C1358.82 125.262 1358.31 128.144 1358.31 131.31C1358.31 134.477 1358.82 137.359 1359.83 139.955C1360.91 142.552 1362.4 144.8 1364.3 146.7C1366.2 148.6 1368.44 150.057 1371.04 151.07C1373.64 152.084 1376.49 152.59 1379.59 152.59C1382.88 152.59 1385.92 151.957 1388.71 150.69C1391.5 149.36 1394.03 147.365 1396.31 144.705L1406.19 153.825C1403.02 157.689 1399.1 160.634 1394.41 162.66C1389.79 164.687 1384.56 165.7 1378.74 165.7ZM1464.41 165.7C1459.09 165.7 1453.99 165.004 1449.11 163.61C1444.24 162.154 1440.31 160.285 1437.33 158.005L1442.56 146.415C1445.41 148.442 1448.77 150.12 1452.63 151.45C1456.56 152.717 1460.51 153.35 1464.5 153.35C1467.54 153.35 1469.98 153.065 1471.82 152.495C1473.72 151.862 1475.11 151.007 1476 149.93C1476.89 148.854 1477.33 147.619 1477.33 146.225C1477.33 144.452 1476.63 143.059 1475.24 142.045C1473.85 140.969 1472.01 140.114 1469.73 139.48C1467.45 138.784 1464.92 138.15 1462.13 137.58C1459.41 136.947 1456.65 136.187 1453.86 135.3C1451.14 134.414 1448.64 133.274 1446.36 131.88C1444.08 130.487 1442.21 128.65 1440.75 126.37C1439.36 124.09 1438.66 121.177 1438.66 117.63C1438.66 113.83 1439.68 110.379 1441.7 107.275C1443.79 104.109 1446.9 101.607 1451.01 99.7704C1455.19 97.8704 1460.42 96.9204 1466.69 96.9204C1470.87 96.9204 1474.99 97.4271 1479.04 98.4404C1483.09 99.3904 1486.67 100.847 1489.77 102.81L1485.02 114.495C1481.92 112.722 1478.82 111.424 1475.71 110.6C1472.61 109.714 1469.57 109.27 1466.59 109.27C1463.62 109.27 1461.18 109.619 1459.28 110.315C1457.38 111.012 1456.02 111.93 1455.19 113.07C1454.37 114.147 1453.96 115.414 1453.96 116.87C1453.96 118.58 1454.66 119.974 1456.05 121.05C1457.44 122.064 1459.28 122.887 1461.56 123.52C1463.84 124.154 1466.34 124.787 1469.06 125.42C1471.85 126.054 1474.61 126.782 1477.33 127.605C1480.12 128.429 1482.65 129.537 1484.93 130.93C1487.21 132.324 1489.05 134.16 1490.44 136.44C1491.9 138.72 1492.62 141.602 1492.62 145.085C1492.62 148.822 1491.58 152.242 1489.49 155.345C1487.4 158.449 1484.26 160.95 1480.08 162.85C1475.97 164.75 1470.74 165.7 1464.41 165.7ZM1534.97 165.7C1529.84 165.7 1525.05 164.877 1520.62 163.23C1516.25 161.52 1512.45 159.114 1509.22 156.01C1505.99 152.907 1503.46 149.265 1501.62 145.085C1499.85 140.905 1498.96 136.314 1498.96 131.31C1498.96 126.307 1499.85 121.715 1501.62 117.535C1503.46 113.355 1505.99 109.714 1509.22 106.61C1512.51 103.507 1516.35 101.132 1520.72 99.4854C1525.09 97.7754 1529.87 96.9204 1535.06 96.9204C1540.82 96.9204 1546.02 97.9338 1550.64 99.9604C1555.33 101.924 1559.25 104.837 1562.42 108.7L1552.54 117.82C1550.26 115.224 1547.73 113.292 1544.94 112.025C1542.15 110.695 1539.11 110.03 1535.82 110.03C1532.72 110.03 1529.87 110.537 1527.27 111.55C1524.67 112.564 1522.43 114.02 1520.53 115.92C1518.63 117.82 1517.14 120.069 1516.06 122.665C1515.05 125.262 1514.54 128.144 1514.54 131.31C1514.54 134.477 1515.05 137.359 1516.06 139.955C1517.14 142.552 1518.63 144.8 1520.53 146.7C1522.43 148.6 1524.67 150.057 1527.27 151.07C1529.87 152.084 1532.72 152.59 1535.82 152.59C1539.11 152.59 1542.15 151.957 1544.94 150.69C1547.73 149.36 1550.26 147.365 1552.54 144.705L1562.42 153.825C1559.25 157.689 1555.33 160.634 1550.64 162.66C1546.02 164.687 1540.79 165.7 1534.97 165.7ZM1617.49 164.56V98.0604H1632.88V164.56H1617.49ZM1571.89 164.56V98.0604H1587.28V164.56H1571.89ZM1586.14 137.295V124.28H1618.63V137.295H1586.14ZM1680.91 165.7C1675.65 165.7 1670.78 164.845 1666.28 163.135C1661.85 161.425 1657.98 159.019 1654.69 155.915C1651.46 152.812 1648.93 149.17 1647.09 144.99C1645.32 140.81 1644.43 136.25 1644.43 131.31C1644.43 126.37 1645.32 121.81 1647.09 117.63C1648.93 113.45 1651.49 109.809 1654.78 106.705C1658.08 103.602 1661.94 101.195 1666.37 99.4854C1670.81 97.7754 1675.62 96.9204 1680.81 96.9204C1686.07 96.9204 1690.88 97.7754 1695.25 99.4854C1699.69 101.195 1703.52 103.602 1706.75 106.705C1710.04 109.809 1712.61 113.45 1714.44 117.63C1716.28 121.747 1717.2 126.307 1717.2 131.31C1717.2 136.25 1716.28 140.842 1714.44 145.085C1712.61 149.265 1710.04 152.907 1706.75 156.01C1703.52 159.05 1699.69 161.425 1695.25 163.135C1690.88 164.845 1686.1 165.7 1680.91 165.7ZM1680.81 152.59C1683.79 152.59 1686.51 152.084 1688.98 151.07C1691.52 150.057 1693.73 148.6 1695.63 146.7C1697.53 144.8 1698.99 142.552 1700 139.955C1701.08 137.359 1701.62 134.477 1701.62 131.31C1701.62 128.144 1701.08 125.262 1700 122.665C1698.99 120.069 1697.53 117.82 1695.63 115.92C1693.8 114.02 1691.61 112.564 1689.08 111.55C1686.55 110.537 1683.79 110.03 1680.81 110.03C1677.84 110.03 1675.08 110.537 1672.55 111.55C1670.08 112.564 1667.89 114.02 1665.99 115.92C1664.09 117.82 1662.61 120.069 1661.53 122.665C1660.52 125.262 1660.01 128.144 1660.01 131.31C1660.01 134.414 1660.52 137.295 1661.53 139.955C1662.61 142.552 1664.06 144.8 1665.9 146.7C1667.8 148.6 1670.02 150.057 1672.55 151.07C1675.08 152.084 1677.84 152.59 1680.81 152.59ZM1761.07 165.7C1755.81 165.7 1750.93 164.845 1746.44 163.135C1742 161.425 1738.14 159.019 1734.85 155.915C1731.62 152.812 1729.08 149.17 1727.25 144.99C1725.47 140.81 1724.59 136.25 1724.59 131.31C1724.59 126.37 1725.47 121.81 1727.25 117.63C1729.08 113.45 1731.65 109.809 1734.94 106.705C1738.23 103.602 1742.1 101.195 1746.53 99.4854C1750.96 97.7754 1755.78 96.9204 1760.97 96.9204C1766.23 96.9204 1771.04 97.7754 1775.41 99.4854C1779.84 101.195 1783.68 103.602 1786.91 106.705C1790.2 109.809 1792.76 113.45 1794.6 117.63C1796.44 121.747 1797.36 126.307 1797.36 131.31C1797.36 136.25 1796.44 140.842 1794.6 145.085C1792.76 149.265 1790.2 152.907 1786.91 156.01C1783.68 159.05 1779.84 161.425 1775.41 163.135C1771.04 164.845 1766.26 165.7 1761.07 165.7ZM1760.97 152.59C1763.95 152.59 1766.67 152.084 1769.14 151.07C1771.67 150.057 1773.89 148.6 1775.79 146.7C1777.69 144.8 1779.15 142.552 1780.16 139.955C1781.24 137.359 1781.78 134.477 1781.78 131.31C1781.78 128.144 1781.24 125.262 1780.16 122.665C1779.15 120.069 1777.69 117.82 1775.79 115.92C1773.95 114.02 1771.77 112.564 1769.24 111.55C1766.7 110.537 1763.95 110.03 1760.97 110.03C1757.99 110.03 1755.24 110.537 1752.71 111.55C1750.24 112.564 1748.05 114.02 1746.15 115.92C1744.25 117.82 1742.76 120.069 1741.69 122.665C1740.67 125.262 1740.17 128.144 1740.17 131.31C1740.17 134.414 1740.67 137.295 1741.69 139.955C1742.76 142.552 1744.22 144.8 1746.06 146.7C1747.96 148.6 1750.17 150.057 1752.71 151.07C1755.24 152.084 1757.99 152.59 1760.97 152.59ZM1808.92 164.56V98.0604H1824.31V152.02H1857.66V164.56H1808.92Z" fill="#212EF5"/>
<path d="M778.788 279.611V227.111H788.838L811.188 264.161H805.863L827.838 227.111H837.813L837.963 279.611H826.563L826.488 244.586H828.588L811.038 274.061H805.563L787.638 244.586H790.188V279.611H778.788ZM875.919 280.511C871.769 280.511 867.919 279.836 864.369 278.486C860.869 277.136 857.819 275.236 855.219 272.786C852.669 270.336 850.669 267.461 849.219 264.161C847.819 260.861 847.119 257.261 847.119 253.361C847.119 249.461 847.819 245.861 849.219 242.561C850.669 239.261 852.694 236.386 855.294 233.936C857.894 231.486 860.944 229.586 864.444 228.236C867.944 226.886 871.744 226.211 875.844 226.211C879.994 226.211 883.794 226.886 887.244 228.236C890.744 229.586 893.769 231.486 896.319 233.936C898.919 236.386 900.944 239.261 902.394 242.561C903.844 245.811 904.569 249.411 904.569 253.361C904.569 257.261 903.844 260.886 902.394 264.236C900.944 267.536 898.919 270.411 896.319 272.861C893.769 275.261 890.744 277.136 887.244 278.486C883.794 279.836 880.019 280.511 875.919 280.511ZM875.844 270.161C878.194 270.161 880.344 269.761 882.294 268.961C884.294 268.161 886.044 267.011 887.544 265.511C889.044 264.011 890.194 262.236 890.994 260.186C891.844 258.136 892.269 255.861 892.269 253.361C892.269 250.861 891.844 248.586 890.994 246.536C890.194 244.486 889.044 242.711 887.544 241.211C886.094 239.711 884.369 238.561 882.369 237.761C880.369 236.961 878.194 236.561 875.844 236.561C873.494 236.561 871.319 236.961 869.319 237.761C867.369 238.561 865.644 239.711 864.144 241.211C862.644 242.711 861.469 244.486 860.619 246.536C859.819 248.586 859.419 250.861 859.419 253.361C859.419 255.811 859.819 258.086 860.619 260.186C861.469 262.236 862.619 264.011 864.069 265.511C865.569 267.011 867.319 268.161 869.319 268.961C871.319 269.761 873.494 270.161 875.844 270.161ZM939.201 280.511C935.051 280.511 931.201 279.836 927.651 278.486C924.151 277.136 921.101 275.236 918.501 272.786C915.951 270.336 913.951 267.461 912.501 264.161C911.101 260.861 910.401 257.261 910.401 253.361C910.401 249.461 911.101 245.861 912.501 242.561C913.951 239.261 915.976 236.386 918.576 233.936C921.176 231.486 924.226 229.586 927.726 228.236C931.226 226.886 935.026 226.211 939.126 226.211C943.276 226.211 947.076 226.886 950.526 228.236C954.026 229.586 957.051 231.486 959.601 233.936C962.201 236.386 964.226 239.261 965.676 242.561C967.126 245.811 967.851 249.411 967.851 253.361C967.851 257.261 967.126 260.886 965.676 264.236C964.226 267.536 962.201 270.411 959.601 272.861C957.051 275.261 954.026 277.136 950.526 278.486C947.076 279.836 943.301 280.511 939.201 280.511ZM939.126 270.161C941.476 270.161 943.626 269.761 945.576 268.961C947.576 268.161 949.326 267.011 950.826 265.511C952.326 264.011 953.476 262.236 954.276 260.186C955.126 258.136 955.551 255.861 955.551 253.361C955.551 250.861 955.126 248.586 954.276 246.536C953.476 244.486 952.326 242.711 950.826 241.211C949.376 239.711 947.651 238.561 945.651 237.761C943.651 236.961 941.476 236.561 939.126 236.561C936.776 236.561 934.601 236.961 932.601 237.761C930.651 238.561 928.926 239.711 927.426 241.211C925.926 242.711 924.751 244.486 923.901 246.536C923.101 248.586 922.701 250.861 922.701 253.361C922.701 255.811 923.101 258.086 923.901 260.186C924.751 262.236 925.901 264.011 927.351 265.511C928.851 267.011 930.601 268.161 932.601 268.961C934.601 269.761 936.776 270.161 939.126 270.161ZM976.982 279.611V227.111H987.032L1018.01 264.911H1013.13V227.111H1025.13V279.611H1015.16L984.107 241.811H988.982V279.611H976.982ZM1037.55 279.611V227.111H1049.7V279.611H1037.55ZM1062.16 279.611V227.111H1086.01C1091.71 227.111 1096.74 228.211 1101.09 230.411C1105.44 232.561 1108.84 235.586 1111.29 239.486C1113.74 243.386 1114.96 248.011 1114.96 253.361C1114.96 258.661 1113.74 263.286 1111.29 267.236C1108.84 271.136 1105.44 274.186 1101.09 276.386C1096.74 278.536 1091.71 279.611 1086.01 279.611H1062.16ZM1074.31 269.636H1085.41C1088.91 269.636 1091.94 268.986 1094.49 267.686C1097.09 266.336 1099.09 264.436 1100.49 261.986C1101.94 259.536 1102.66 256.661 1102.66 253.361C1102.66 250.011 1101.94 247.136 1100.49 244.736C1099.09 242.286 1097.09 240.411 1094.49 239.111C1091.94 237.761 1088.91 237.086 1085.41 237.086H1074.31V269.636ZM1124.13 279.611V227.111H1136.28V279.611H1124.13ZM1184.73 279.611V227.111H1196.88V279.611H1184.73ZM1148.73 279.611V227.111H1160.88V279.611H1148.73ZM1159.98 258.086V247.811H1185.63V258.086H1159.98ZM1206.46 291.161L1211.41 273.161L1213.06 279.911C1210.91 279.911 1209.13 279.286 1207.73 278.036C1206.38 276.786 1205.71 275.061 1205.71 272.861C1205.71 270.661 1206.41 268.911 1207.81 267.611C1209.21 266.311 1210.93 265.661 1212.98 265.661C1215.08 265.661 1216.81 266.336 1218.16 267.686C1219.51 268.986 1220.18 270.711 1220.18 272.861C1220.18 273.511 1220.13 274.161 1220.03 274.811C1219.93 275.411 1219.73 276.161 1219.43 277.061C1219.18 277.911 1218.76 279.011 1218.16 280.361L1213.88 291.161H1206.46ZM1228.93 279.611V227.111H1252.78C1258.48 227.111 1263.51 228.211 1267.86 230.411C1272.21 232.561 1275.61 235.586 1278.06 239.486C1280.51 243.386 1281.73 248.011 1281.73 253.361C1281.73 258.661 1280.51 263.286 1278.06 267.236C1275.61 271.136 1272.21 274.186 1267.86 276.386C1263.51 278.536 1258.48 279.611 1252.78 279.611H1228.93ZM1241.08 269.636H1252.18C1255.68 269.636 1258.71 268.986 1261.26 267.686C1263.86 266.336 1265.86 264.436 1267.26 261.986C1268.71 259.536 1269.43 256.661 1269.43 253.361C1269.43 250.011 1268.71 247.136 1267.26 244.736C1265.86 242.286 1263.86 240.411 1261.26 239.111C1258.71 237.761 1255.68 237.086 1252.18 237.086H1241.08V269.636ZM1326.9 279.611V227.111H1339.05V279.611H1326.9ZM1290.9 279.611V227.111H1303.05V279.611H1290.9ZM1302.15 258.086V247.811H1327.8V258.086H1302.15ZM1344.57 279.611L1367.97 227.111H1379.97L1403.44 279.611H1390.69L1371.49 233.261H1376.29L1357.02 279.611H1344.57ZM1356.27 268.361L1359.49 259.136H1386.49L1389.79 268.361H1356.27ZM1408.89 279.611V227.111H1418.94L1449.92 264.911H1445.04V227.111H1457.04V279.611H1447.07L1416.02 241.811H1420.89V279.611H1408.89ZM1469.46 279.611V227.111H1495.11C1501.71 227.111 1506.66 228.361 1509.96 230.861C1513.31 233.361 1514.99 236.661 1514.99 240.761C1514.99 243.511 1514.31 245.911 1512.96 247.961C1511.61 249.961 1509.76 251.511 1507.41 252.611C1505.06 253.711 1502.36 254.261 1499.31 254.261L1500.74 251.186C1504.04 251.186 1506.96 251.736 1509.51 252.836C1512.06 253.886 1514.04 255.461 1515.44 257.561C1516.89 259.661 1517.61 262.236 1517.61 265.286C1517.61 269.786 1515.84 273.311 1512.29 275.861C1508.74 278.361 1503.51 279.611 1496.61 279.611H1469.46ZM1481.54 270.461H1495.71C1498.86 270.461 1501.24 269.961 1502.84 268.961C1504.49 267.911 1505.31 266.261 1505.31 264.011C1505.31 261.811 1504.49 260.186 1502.84 259.136C1501.24 258.036 1498.86 257.486 1495.71 257.486H1480.64V248.636H1493.61C1496.56 248.636 1498.81 248.136 1500.36 247.136C1501.96 246.086 1502.76 244.511 1502.76 242.411C1502.76 240.361 1501.96 238.836 1500.36 237.836C1498.81 236.786 1496.56 236.261 1493.61 236.261H1481.54V270.461ZM1519.91 279.611L1543.31 227.111H1555.31L1578.79 279.611H1566.04L1546.84 233.261H1551.64L1532.36 279.611H1519.91ZM1531.61 268.361L1534.84 259.136H1561.84L1565.14 268.361H1531.61ZM1584.23 279.611V227.111H1608.08C1613.78 227.111 1618.81 228.211 1623.16 230.411C1627.51 232.561 1630.91 235.586 1633.36 239.486C1635.81 243.386 1637.03 248.011 1637.03 253.361C1637.03 258.661 1635.81 263.286 1633.36 267.236C1630.91 271.136 1627.51 274.186 1623.16 276.386C1618.81 278.536 1613.78 279.611 1608.08 279.611H1584.23ZM1596.38 269.636H1607.48C1610.98 269.636 1614.01 268.986 1616.56 267.686C1619.16 266.336 1621.16 264.436 1622.56 261.986C1624.01 259.536 1624.73 256.661 1624.73 253.361C1624.73 250.011 1624.01 247.136 1622.56 244.736C1621.16 242.286 1619.16 240.411 1616.56 239.111C1614.01 237.761 1610.98 237.086 1607.48 237.086H1596.38V269.636Z" fill="#212EF5"/>
<defs>
<linearGradient id="paint0_linear_3_727" x1="239.144" y1="196.351" x2="252.453" y2="211.274" gradientUnits="userSpaceOnUse">
<stop stop-color="#8D8D8D"/>
<stop offset="0.25" stop-color="#8D8D8D"/>
<stop offset="0.375" stop-color="#8D8D8D"/>
<stop offset="0.40625" stop-color="#8D8D8D"/>
<stop offset="0.421875" stop-color="#8D8D8D"/>
<stop offset="0.429688" stop-color="#8D8D8D"/>
<stop offset="0.433594" stop-color="#909090"/>
<stop offset="0.4375" stop-color="#929292"/>
<stop offset="0.441406" stop-color="#989898"/>
<stop offset="0.445312" stop-color="#9D9D9D"/>
<stop offset="0.449219" stop-color="#A2A2A2"/>
<stop offset="0.453125" stop-color="#A8A8A8"/>
<stop offset="0.457031" stop-color="#ADADAD"/>
<stop offset="0.460938" stop-color="#B2B2B2"/>
<stop offset="0.464844" stop-color="#B8B8B8"/>
<stop offset="0.46875" stop-color="#BDBDBD"/>
<stop offset="0.472656" stop-color="#C2C2C2"/>
<stop offset="0.476562" stop-color="#C8C8C8"/>
<stop offset="0.480469" stop-color="#CDCDCD"/>
<stop offset="0.484375" stop-color="#D2D2D2"/>
<stop offset="0.488281" stop-color="#D8D8D8"/>
<stop offset="0.492188" stop-color="#DDDDDD"/>
<stop offset="0.496094" stop-color="#E2E2E2"/>
<stop offset="0.5" stop-color="#E8E8E8"/>
<stop offset="0.503906" stop-color="#EDEDED"/>
<stop offset="0.507812" stop-color="#F2F2F2"/>
<stop offset="0.511719" stop-color="#F8F8F8"/>
<stop offset="0.515625" stop-color="#FDFDFD"/>
<stop offset="0.519531" stop-color="#DEDEDE"/>
<stop offset="0.523438" stop-color="#BFBFBF"/>
<stop offset="0.527344" stop-color="#979797"/>
<stop offset="0.53125" stop-color="#707070"/>
<stop offset="0.535156" stop-color="#6D6D6D"/>
<stop offset="0.539062" stop-color="#6A6A6A"/>
<stop offset="0.542969" stop-color="#717171"/>
<stop offset="0.546875" stop-color="#797979"/>
<stop offset="0.550781" stop-color="#808080"/>
<stop offset="0.554688" stop-color="#878787"/>
<stop offset="0.558594" stop-color="#8E8E8E"/>
<stop offset="0.5625" stop-color="#959595"/>
<stop offset="0.566406" stop-color="#9C9C9C"/>
<stop offset="0.570312" stop-color="#A3A3A3"/>
<stop offset="0.574219" stop-color="#AAAAAA"/>
<stop offset="0.578125" stop-color="#B1B1B1"/>
<stop offset="0.582031" stop-color="#B8B8B8"/>
<stop offset="0.585938" stop-color="#BFBFBF"/>
<stop offset="0.589844" stop-color="#C6C6C6"/>
<stop offset="0.59375" stop-color="#CDCDCD"/>
<stop offset="0.597656" stop-color="#D4D4D4"/>
<stop offset="0.601562" stop-color="#DADADA"/>
<stop offset="0.609375" stop-color="#DADADA"/>
<stop offset="0.625" stop-color="#DADADA"/>
<stop offset="0.75" stop-color="#DADADA"/>
<stop offset="1" stop-color="#DADADA"/>
</linearGradient>
<linearGradient id="paint1_linear_3_727" x1="255.204" y1="172.95" x2="276.174" y2="197.747" gradientUnits="userSpaceOnUse">
<stop stop-color="#525252"/>
<stop offset="0.25" stop-color="#525252"/>
<stop offset="0.3125" stop-color="#525252"/>
<stop offset="0.34375" stop-color="#525252"/>
<stop offset="0.359375" stop-color="#525252"/>
<stop offset="0.367188" stop-color="#525252"/>
<stop offset="0.371094" stop-color="#555555"/>
<stop offset="0.375" stop-color="#595959"/>
<stop offset="0.378906" stop-color="#5E5E5E"/>
<stop offset="0.382812" stop-color="#636363"/>
<stop offset="0.386719" stop-color="#696969"/>
<stop offset="0.390625" stop-color="#6E6E6E"/>
<stop offset="0.394531" stop-color="#737373"/>
<stop offset="0.398438" stop-color="#797979"/>
<stop offset="0.402344" stop-color="#7E7E7E"/>
<stop offset="0.40625" stop-color="#838383"/>
<stop offset="0.410156" stop-color="#898989"/>
<stop offset="0.414062" stop-color="#8E8E8E"/>
<stop offset="0.417969" stop-color="#939393"/>
<stop offset="0.421875" stop-color="#999999"/>
<stop offset="0.425781" stop-color="#9E9E9E"/>
<stop offset="0.429688" stop-color="#A3A3A3"/>
<stop offset="0.433594" stop-color="#A9A9A9"/>
<stop offset="0.4375" stop-color="#AEAEAE"/>
<stop offset="0.441406" stop-color="#B3B3B3"/>
<stop offset="0.445313" stop-color="#B9B9B9"/>
<stop offset="0.449219" stop-color="#BEBEBE"/>
<stop offset="0.453125" stop-color="#C3C3C3"/>
<stop offset="0.457031" stop-color="#C9C9C9"/>
<stop offset="0.460938" stop-color="#CECECE"/>
<stop offset="0.464844" stop-color="#D2D2D2"/>
<stop offset="0.46875" stop-color="#D5D5D5"/>
<stop offset="0.472656" stop-color="#D0D0D0"/>
<stop offset="0.476562" stop-color="#CBCBCB"/>
<stop offset="0.480469" stop-color="#C6C6C6"/>
<stop offset="0.484375" stop-color="#C2C2C2"/>
<stop offset="0.488281" stop-color="#BDBDBD"/>
<stop offset="0.492188" stop-color="#B8B8B8"/>
<stop offset="0.496094" stop-color="#B3B3B3"/>
<stop offset="0.5" stop-color="#AEAEAE"/>
<stop offset="0.503906" stop-color="#B4B4B4"/>
<stop offset="0.507812" stop-color="#BABABA"/>
<stop offset="0.511719" stop-color="#C0C0C0"/>
<stop offset="0.515625" stop-color="#C7C7C7"/>
<stop offset="0.519531" stop-color="#C2C2C2"/>
<stop offset="0.523438" stop-color="#BEBEBE"/>
<stop offset="0.527344" stop-color="#BABABA"/>
<stop offset="0.53125" stop-color="#B6B6B6"/>
<stop offset="0.535156" stop-color="#B1B1B1"/>
<stop offset="0.539062" stop-color="#ADADAD"/>
<stop offset="0.542969" stop-color="#A9A9A9"/>
<stop offset="0.546875" stop-color="#A5A5A5"/>
<stop offset="0.550781" stop-color="#A0A0A0"/>
<stop offset="0.554688" stop-color="#9C9C9C"/>
<stop offset="0.558594" stop-color="#989898"/>
<stop offset="0.5625" stop-color="#949494"/>
<stop offset="0.566406" stop-color="#8F8F8F"/>
<stop offset="0.570312" stop-color="#8B8B8B"/>
<stop offset="0.574219" stop-color="#8B8B8B"/>
<stop offset="0.578125" stop-color="#8A8A8A"/>
<stop offset="0.59375" stop-color="#8A8A8A"/>
<stop offset="0.625" stop-color="#8A8A8A"/>
<stop offset="0.75" stop-color="#8A8A8A"/>
<stop offset="1" stop-color="#8A8A8A"/>
</linearGradient>
</defs>
</svg>
